<?xml version="1.0" encoding="UTF-8"?>
<svg id="Layer_1" data-name="Layer 1" xmlns="http://www.w3.org/2000/svg" viewBox="0 0 84.94 133.56">
  <path d="M84.31,0c-.74,.04-1.25,.46-1.78,.78-4.23,2.64-8.51,5.18-12.67,7.97-17.63,11.83-34.03,25.55-48.98,41.41-2.36,2.49-4.64,5.06-6.84,7.7-3.24,3.88-5.9,8.17-8.12,12.75-2.42,5.01-4.21,10.16-5.1,15.51-2.62,15.68,1.02,28.45,11.13,38.02,16.06,15.17,43,11.79,60.15-8.51,5.96-7.05,9.92-15.05,11.98-23.92,.73-3.07,.92-6.12,.85-9.17-.08-3.54-.48-7-1.2-10.35-.98-4.6-2.05-9.18-3.14-13.73-1.13-4.74-2.29-9.46-3.11-14.33-.83-4.93-1.35-9.93-1.25-15.09,.15-8.28,1.99-16.34,5.67-24.17,.57-1.2,1.22-2.36,1.83-3.54,.2-.4,.35-.82,.57-1.33" fill="#97d9ef"/>
  <path d="M78.77,75.45c-.11,.07-.16,.08-.17,.11-.07,.23-.15,.47-.2,.7-.93,3.82-2.31,7.48-4.08,11-1.59,3.14-3.42,6.14-5.65,8.86-2.13,2.61-4.54,4.93-7.4,6.72-1.36,.83-2.69,1.72-3.97,2.65-1.01,.75-1.99,1.57-2.89,2.44-.59,.57-1.1,1.22-1.49,1.92-.73,1.28-.75,2.61,.2,3.8,1.8,2.27,3.97,3.2,6.66,2.6,1.09-.24,2.1-.66,3.08-1.2,1.4-.77,2.68-1.71,3.88-2.77,1.9-1.68,3.58-3.57,5.06-5.63,2.25-3.14,4.09-6.47,5.3-10.16,2.17-6.6,2.6-13.34,1.86-20.2-.03-.27-.12-.52-.17-.82" fill="#fff"/>
</svg>