<?xml version="1.0" encoding="UTF-8"?>
<svg id="Layer_1" data-name="Layer 1" xmlns="http://www.w3.org/2000/svg" viewBox="0 0 558.55 177.85">
  <path d="M0,106.71v-.2c0-18.94,19.4-47.32,34.19-57.02l-1.19,.07c-4.16,0-18.48-.79-18.48-11.48v-.26C14.78,22.5,55.9,.73,72.2,.59c0,0,3.1-.59,6.93-.59,5.21,0,11.75,1.12,13.4,6.4,.13,.53,.2,1.06,.2,1.58,0,10.03-24.62,27.12-32.8,27.12h-.73c-1.52,0-2.57-1.32-2.57-2.44,0-.99,.73-1.85,2.44-1.85l.73,.07c4.49,0,28.77-12.8,28.77-21.91,0-.66-.13-1.32-.46-1.98-1.39-2.38-4.82-3.43-9.37-3.43-19.4,0-59.99,19.07-59.99,34.19v.07c.13,4.95,6.86,6.53,14.19,6.53,6.14,0,12.74-1.12,15.9-2.38,1.78,0,2.57,.73,2.57,2.31,0,3.56-5.74,4.22-9.7,5.61C20.06,61.51,4.36,91.07,4.36,105v.2c.2,20.66,16.04,28.84,34.05,28.84s45.27-7.26,53.19-20.46c.4-.73,1.58-1.45,2.9-1.45,.66,0,1.39,.2,2.05,.66,.79,.66,1.06,1.52,1.06,2.31,0,.92-.33,1.78-.73,2.38-13.66,14.32-39.99,20.46-58.54,20.46C17.62,137.93,.2,128.16,0,106.71Z" fill="#231f20"/>
  <path d="M106.59,104.4c-11.48,0-16.1-10.16-16.1-23.76,0-26.99,18.15-67.38,35.9-67.51h.13c5.02,0,9.04,3.96,9.04,12.54,0,1.65-.13,3.5-.46,5.54-5.94,40.59-39.6,60.25-39.6,60.25,.4,2.11,4.16,9.44,12.01,9.44,6.4,0,12.27-3.37,23.36-10.76,.99,0,1.39,.4,1.39,1.12v.26c-.13,1.06-16.1,12.8-25.54,12.87h-.13Zm25.54-73.39c.33-1.78,.46-3.43,.46-4.82,0-6.67-3.04-9.44-6.73-9.44-9.37,0-31.81,29.9-31.81,63.09,0,2.9,.13,5.87,.53,8.84,0,0,31.61-17.29,37.55-57.68Z" fill="#231f20"/>
  <path d="M127.12,97.34c0-5.94,8.58-13.59,20.59-14.12h.4c1.91,0,2.24,.53,2.24,1.58,0,.79-1.65,.73-4.88,1.19-7.59,1.06-13.53,5.74-13.53,10.36,0,2.31,3.43,2.31,3.43,2.31,6.8-.46,18.28-13.26,19.53-13.26,1.72,0,2.11,.99,2.11,1.85,.13,5.48,4.03,10.82,9.11,10.82,3.37,0,8.12-2.18,15.24-7.33,.59,0,1.19,.66,1.19,1.19,0,.2-.07,.4-.2,.53-.66,.86-8.91,7.99-17.03,7.99-4.75,0-9.44-2.51-12.47-10.16-2.64,.13-10.69,12.08-21.38,12.08-3.5,0-4.29-3.17-4.36-5.02Z" fill="#231f20"/>
  <path d="M180.05,94.5c0-26.33,23.56-69.89,48.31-69.89,3.43,0,6.01,2.51,6.01,7.33,0,10.1-11.29,30.49-49.56,59.73-.26,1.06-.46,1.72-.46,5.08,0,5.15,1.85,12.41,6.6,12.41,3.76,0,4.55-2.18,4.55-3.96,0-1.19-.4-2.18-.4-2.18-4.95,0-7.52-.59-7.52-3.37,0-2.18,1.58-3.37,4.95-3.37,4.36,0,5.94,1.58,7.52,2.77,11.88-.4,23.96-2.57,31.48-9.9h.46c.86,0,1.91,.13,1.91,2.38,0,1.98-18.61,10.89-32.93,10.89h-.53l.13,1.06c0,2.64-1.12,9.64-8.84,9.64-9.9,0-11.68-13.07-11.68-18.61Zm50.82-62.1c0-2.11-.86-3.3-2.57-3.3h-.2c-29.57,0-43.29,51.15-43.29,58.8,32.47-24.75,46.06-47.32,46.06-55.5Z" fill="#231f20"/>
  <path d="M229.02,95.82c.07-3.63,1.98-7.52,4.75-9.24,0,0,.99-7.13,11.29-7.13,3.96,0,5.74,2.57,5.74,4.95,0,2.77-3.17,8.12-6.73,11.09,6.14,0,10.69-.79,18.41-5.35h.4c.4,0,.79,.2,.79,1.19,0,.4,0,.79-.4,1.19-4.16,2.97-11.68,6.34-18.41,6.34-1.58,0-3.17-.2-4.55-.59-2.77,1.98-5.35,2.77-7.13,2.77-3.83,0-4.16-4.22-4.16-5.21Zm7.72,1.06c-1.58,0-2.97-2.57-3.17-3.56,0,0-1.12,1.52-1.12,2.97,.2,1.06,.26,1.65,1.58,1.65,.79,0,1.78-.33,2.71-1.06Zm10.29-12.87c0-.99-.79-1.58-1.98-1.58-5.35,0-7.72,3.17-7.72,4.36,1.19,.2,2.97,.79,2.97,1.58,0,2.05-1.12,2.44-2.51,2.44l-1.25-.07c0,1.98,1.39,3.56,3.96,3.76,4.36-3.76,6.53-7.52,6.53-10.49Z" fill="#231f20"/>
  <path d="M265.52,99.45c0-1.52,.73-3.3,1.91-4.95l.33-.92c0-.92-1.32-1.19-2.84-1.19l-3.37,.33c-.53,0-.73-.59-.73-1.72l.4-1.72c0-2.57,3.63-11.09,7.66-11.09l1.12,.26c1.32,.26,2.31,.86,2.31,2.05v.13c0,4.16-3.5,6.34-5.28,8.71,2.9,.26,5.21,1.85,5.21,3.96,0,.66-.2,1.25-.66,1.98-1.12,1.58-1.65,2.71-1.65,3.43,0,1.78,2.57,1.91,5.81,1.91,7.06,0,25.14-9.64,25.14-10.43l.26-.2c.4,0,.92,.59,.92,1.12v.07c0,1.52-1.19,1.91-1.19,1.91-6.14,3.37-19.01,10.89-28.51,10.89-4.95,0-6.86-1.98-6.86-4.55Z" fill="#231f20"/>
  <path d="M297.07,97.34c0-5.94,8.58-13.59,20.59-14.12h.4c1.91,0,2.24,.53,2.24,1.58,0,.79-1.65,.73-4.88,1.19-7.59,1.06-13.53,5.74-13.53,10.36,0,2.31,3.43,2.31,3.43,2.31,6.8-.46,18.28-13.26,19.53-13.26,1.72,0,2.11,.99,2.11,1.85,.13,5.48,4.03,10.82,9.11,10.82,3.37,0,8.12-2.18,15.24-7.33,.59,0,1.19,.66,1.19,1.19,0,.2-.07,.4-.2,.53-.66,.86-8.91,7.99-17.03,7.99-4.75,0-9.44-2.51-12.47-10.16-2.64,.13-10.69,12.08-21.38,12.08-3.5,0-4.29-3.17-4.36-5.02Z" fill="#231f20"/>
  <path d="M331.85,158.25c0-8.45,4.36-18.28,13.07-29.5,8.71-11.22,20.59-20.85,35.64-28.91-2.51-7-4.95-10.49-7.39-10.49-2.71,.79-5.02,2.18-6.86,4.16-.59,.46-1.06,.73-1.39,.73-.73,0-1.19-.79-1.39-2.31,.26-1.72,1.98-4.03,5.15-6.86,3.23-2.84,9.77-7.79,19.6-14.72,.26,0,.46-.07,.59-.2v-.4c-1.32,0-4.03,1.19-8.12,3.56-4.09,2.38-8.38,5.15-12.87,8.32-4.49,3.17-8.32,5.74-11.55,7.79-3.23,2.05-5.08,3.23-5.48,3.56-.4,.26-.86,.46-1.32,.59-.99-.13-1.52-.66-1.52-1.72,.07-3.3,1.98-4.69,5.61-4.09l8.84-6.67c13.99-10.36,23.36-15.51,28.18-15.51,2.51,0,3.76,.92,3.76,2.77-.26,1.52-3.17,4.29-8.71,8.31-3.7,2.9-6.93,5.74-9.7,8.51,2.64,.86,5.48,5.15,8.51,12.87,3.83-1.72,8.91-4.36,15.25-7.92,1.32,.13,1.98,.86,1.98,2.18-4.09,2.77-9.37,5.68-15.84,8.71,4.09,11.22,6.14,21.51,6.14,30.89,0,4.09-.4,8.05-1.19,11.88-2.64,11.48-7.33,19.93-14.06,25.41s-14.12,8.38-22.17,8.65c-15.18,0-22.77-6.53-22.77-19.6Zm54.05-15.84c.79-4.55,1.06-8.78,1.06-12.74,0-16.17-5.28-26.66-5.41-26.66-29.1,14.32-46.86,39.66-46.86,56.36,0,9.57,5.87,16.3,18.94,16.3h.33c15.31,0,28.58-13.79,31.94-33.26Z" fill="#231f20"/>
  <path d="M409.4,108.76c-11.88-.07-13.07-8.71-13.07-10.43,.13-8.71,4.75-10.69,7.66-10.69h.33c1.52,.53,2.24,.99,2.24,1.52v1.12c-6.14,1.25-6.8,5.68-6.8,7.46l.07,.79c.07,4.75,3.7,7.26,10.56,7.26,19.67,0,34.45-15.57,35.83-15.57,.79,0,1.06,.2,1.25,1.12l.13,.4c0,.46-.4,1.06-.92,1.32-10.56,7.72-22.64,15.71-37.15,15.71h-.13Zm-4.03-23.82c-1.65,0-2.24-.46-2.24-1.12,0-1.58,3.23-4.16,4.88-4.16,2.44,.07,3.37,1.19,3.37,1.85-.2,1.58-2.24,3.37-5.87,3.43h-.13Z" fill="#231f20"/>
  <path d="M444.18,95.82c.07-3.63,1.98-7.52,4.75-9.24,0,0,.99-7.13,11.29-7.13,3.96,0,5.74,2.57,5.74,4.95,0,2.77-3.17,8.12-6.73,11.09,6.14,0,10.69-.79,18.41-5.35h.4c.4,0,.79,.2,.79,1.19,0,.4,0,.79-.4,1.19-4.16,2.97-11.68,6.34-18.41,6.34-1.58,0-3.17-.2-4.55-.59-2.77,1.98-5.35,2.77-7.13,2.77-3.83,0-4.16-4.22-4.16-5.21Zm7.72,1.06c-1.58,0-2.97-2.57-3.17-3.56,0,0-1.12,1.52-1.12,2.97,.2,1.06,.26,1.65,1.58,1.65,.79,0,1.78-.33,2.71-1.06Zm10.29-12.87c0-.99-.79-1.58-1.98-1.58-5.35,0-7.72,3.17-7.72,4.36,1.19,.2,2.97,.79,2.97,1.58,0,2.05-1.12,2.44-2.51,2.44l-1.25-.07c0,1.98,1.39,3.56,3.96,3.76,4.36-3.76,6.53-7.52,6.53-10.49Z" fill="#231f20"/>
  <path d="M491.9,86.65h-.2c-6.07,0-12.87,10.43-14.85,10.49l-.13,.07c-1.06,0-1.32-1.32-1.32-2.24,.07-.59,5.74-11.88,6.73-12.08h1.19c.73,0,1.06,1.39,1.06,4.16,4.82-3.3,7.52-4.95,8.32-4.95,1.98,0,2.97,1.06,2.97,3.04,.07,6.14,4.49,10.89,8.84,10.89,4.75,0,15.58-6.01,15.58-6.01,.2-.2,.4-.26,.59-.26,.73,0,1.25,.99,1.25,1.39-2.18,2.77-13,8.05-18.21,8.05-9.3,0-10.49-9.64-11.81-12.54Z" fill="#231f20"/>
  <path d="M518.96,94.77c0-6.34,6.73-15.44,12.67-15.44,2.51,0,4.29,.66,4.62,3.3v.4c0,3.37-5.02,5.54-12.93,8.98-.59,.99-.79,2.77-.79,3.37,0,2.18,2.24,3.37,6.14,3.37,13.07,0,22.37-5.35,28.51-9.11,.79,0,1.39,.79,1.39,1.39,0,.4,0,.99-.2,1.19-4.16,2.57-16.83,9.5-30.29,9.5-7.13,0-9.11-2.18-9.11-6.93Zm14.65-11.61v-.2c0-.59-.13-1.52-1.85-1.52-2.64,0-6.6,5.81-7.39,7.46,4.75-1.91,9.24-4.22,9.24-5.74Z" fill="#231f20"/>
</svg>