<?xml version="1.0" encoding="UTF-8"?>
<svg id="Layer_2" data-name="Layer 2" xmlns="http://www.w3.org/2000/svg" viewBox="0 0 1920.34 393.35">
  <defs>
    <style>
      .cls-1 {
        fill: none;
        stroke: #fff;
        stroke-miterlimit: 10;
        stroke-width: .95px;
      }

      .cls-2 {
        fill: #eb657d;
      }
    </style>
  </defs>
  <path class="cls-2" d="M1920.1,393.35c-65.62-78.65-440.9-45.66-672.44-89.52-159.99-30.31-215.4-118.91-481.86-189.09C308.75-5.63,.1,58.39,.1,58.39,.1,58.39,.1-6.04,.1,3.97,86.04,.15,333.58-8.87,521.62,25.52c115.74,21.17,226.78,32.91,392.87,109.57,69.13,31.91,109.77,64.37,209.02,100.56,61.59,22.46,107.35,32.92,127.22,37.16,18.68,3.98,75.97,15.75,153.48,19.42,59.32,2.8,91.06-4.08,249.06,10.34h0c63.45,0,151.94,16.39,266.83,50.09"/>
  <path class="cls-1" d="M.1,27.09c155.26-31.7,375.69,5.03,591.96,30.52,174.84,20.61,270.37,75.19,313.43,92.74,57.41,23.39,235.32,102.18,342.78,132.65,78.65,22.3,275.01,20.77,456.33,38.82,60.55,6.03,139.85,6.94,215.5,51.57"/>
</svg>