<?xml version="1.0" encoding="UTF-8"?>
<svg id="Layer_1" data-name="Layer 1" xmlns="http://www.w3.org/2000/svg" viewBox="0 0 11.34 11.33">
  <path d="M4.67,3.8l.34,.86c.01,.07,.01,.14-.03,.21-.05,.08-.11,.13-.18,.18-.06,.04-.12,.12-.16,.17-.05,.04-.05,.08,0,.14,.23,.34,.42,.6,.6,.79,.19,.2,.43,.39,.77,.6,.07,.05,.11,.05,.15,0,.05-.04,.11-.09,.16-.16,.06-.05,.09-.13,.15-.16,.12-.05,.16-.06,.22-.04l.87,.33c.08,.04,.14,.13,.15,.27,.04,.13,.04,.23-.04,.33-.12,.26-.35,.42-.67,.48-.33,.05-.63,.04-.9-.09-1.09-.53-1.9-1.32-2.42-2.44-.13-.25-.15-.56-.08-.89,.06-.34,.21-.56,.47-.69,.08-.04,.2-.05,.34-.04,.14,.02,.22,.08,.26,.16m4.78,1.88c0,1.05-.38,1.93-1.14,2.68-.63,.64-1.39,1-2.26,1.08-.82,.09-1.59-.07-2.33-.52l-1.6,.28,.28-1.57c-.43-.71-.61-1.5-.5-2.39,.04-.41,.15-.8,.34-1.18,.18-.4,.43-.76,.75-1.05,.39-.34,.77-.66,1.25-.83,.46-.19,.93-.28,1.43-.28s.94,.09,1.41,.28c.47,.18,.9,.46,1.24,.83,.38,.4,.67,.79,.84,1.25,.19,.47,.29,.94,.29,1.41m-1.44-2.34c-.66-.66-1.45-.97-2.34-.97s-1.7,.32-2.36,.97c-.54,.54-.88,1.18-.95,1.96-.07,.8,.09,1.51,.5,2.17l.05,.09-.02,.09-.14,.93,.93-.12,.1-.05,.09,.06c.69,.42,1.39,.6,2.14,.5,.76-.08,1.44-.4,2-.95,.64-.66,.97-1.45,.97-2.36s-.33-1.71-.97-2.34M0,5.66c0,3.13,2.53,5.67,5.67,5.67s5.67-2.54,5.67-5.67S8.81-.02,5.67,0C2.53,.01,0,2.52,0,5.66" fill="#231f20"/>
</svg>