<svg
   width="1024"
   height="2800"
   viewBox="0 0 1024 2800"
   version="1.1"
   id="svg1"
   inkscape:version="1.3 (0e150ed6c4, 2023-07-21)"
   sodipodi:docname="back1.svg"
   inkscape:export-filename="back1.png"
   inkscape:export-xdpi="96"
   inkscape:export-ydpi="96"
   xmlns:inkscape="http://www.inkscape.org/namespaces/inkscape"
   xmlns:sodipodi="http://sodipodi.sourceforge.net/DTD/sodipodi-0.dtd"
   xmlns="http://www.w3.org/2000/svg">
  <sodipodi:namedview
     id="namedview1"
     pagecolor="#ffffff"
     bordercolor="#000000"
     borderopacity="0.25"
     inkscape:showpageshadow="2"
     inkscape:pageopacity="0.0"
     inkscape:pagecheckerboard="0"
     inkscape:deskcolor="#d1d1d1"
     inkscape:document-units="mm"
     inkscape:zoom="0.15779701"
     inkscape:cx="-256.65886"
     inkscape:cy="1669.8669"
     inkscape:window-width="1366"
     inkscape:window-height="697"
     inkscape:window-x="-8"
     inkscape:window-y="-8"
     inkscape:window-maximized="1"
     inkscape:current-layer="layer1" />
  <defs
     id="defs1" />
  <g
     inkscape:label="Livello 1"
     inkscape:groupmode="layer"
     id="layer1">
    <path
       style="fill:#f5969e;fill-opacity:1;stroke-width:52.6876"
       d="M -4.1707767,1219.4136 V 2796.7473 H 1017.5238 v -893.5186 c 0,0 -142.40034,29.1146 -278.65134,-48.2502 C 602.62146,1777.6136 610.18861,1658.8948 517.06851,1571.0877 409.71769,1469.8618 433.64352,1417.9478 297.39252,1391.8299 165.25833,1366.5012 167.72728,1212.8261 52.864533,1218.4675"
       id="path1-6"
       sodipodi:nodetypes="ccccsssc" />
    <path
       style="fill:#facfd0;fill-opacity:1;stroke-width:51.5536"
       d="M -4.4811146,1286.0515 V 2796.2167 H 1017.2135 v -855.4693 c 0,0 -140.81611,20.2905 -277.06711,-53.7798 C 603.89539,1812.8971 575.92146,1737.9371 512.54886,1629.9177 449.17633,1521.8984 432.78954,1485.753 306.04442,1442.5453 179.29931,1399.3375 167.41695,1279.7447 52.554185,1285.1457"
       id="path1"
       sodipodi:nodetypes="ccccsssc" />
  </g>
</svg>
