<?xml version="1.0" encoding="UTF-8"?>
<svg id="Layer_1" data-name="Layer 1" xmlns="http://www.w3.org/2000/svg" viewBox="0 0 11.34 11.33">
  <path d="M8.3,3.08c.14,0,.28,.05,.39,.15,.13,.13,.16,.26,.16,.4V7.75c0,.16-.04,.27-.16,.39-.11,.13-.25,.18-.39,.18H3.01c-.16,0-.3-.06-.41-.18-.13-.11-.15-.22-.15-.39V3.63c0-.14,.02-.27,.15-.4,.11-.11,.25-.15,.41-.15h5.29Zm-2.25,3.43l2.32-2.48c.06-.06,.08-.13,.02-.18-.08-.04-.14-.02-.23,.07l-2.07,1.94c-.12,.15-.28,.22-.45,.22-.18,0-.31-.07-.45-.22l-2.07-1.94c-.09-.09-.16-.13-.23-.07-.05,.05-.04,.12,.04,.18l2.3,2.48c.11,.15,.25,.23,.41,.23s.3-.08,.41-.23M0,5.66c0,3.13,2.53,5.67,5.67,5.67s5.67-2.54,5.67-5.67S8.81-.02,5.67,0C2.53,.01,0,2.52,0,5.66" fill="#231f20"/>
</svg>