<?xml version="1.0" encoding="UTF-8"?>
<svg id="Layer_1" xmlns="http://www.w3.org/2000/svg" viewBox="0 0 595.28 841.89">
    <path d="M594.57,840.54L-.77,841.89,.38,296.98c9.82-.23,46.43,4.13,61.14,11.31,33.52,16.36,38.69,22.6,45.26,25.78,6.91,3.35,15.84,2.44,52.41,6.85,4.09,.46,19.85,2.66,23.9,3.24,18.4,2.63,24.04,3.94,44.04,13.08,16.53,9.44,28.06,15.17,40.82,34.14,17.01,25.3,31.84,57.92,56.55,73.97,31.24,20.29,72.42,15.64,107.64,24.52,7.07,1.79,13.91,4.12,20.38,7.3,13.37,6.59,25.17,16.86,34.23,33.57,12.59,23.19,15.18,51.19,24.18,75.82,3.88,10.61,8.95,20.6,16.51,29.3,20.23,23.28,50.85,19.07,67.52,19.03" fill="#78a15d"/>
    <path d="M595.95,841.79L.74,840.79-.23,323.68c9.81-.18,45.31,2.9,60.04,9.63,33.58,15.33,33.47,19.91,48.45,23.7,20.46,5.05,12.02,5.55,53.23,10.04,4.09,.45,8.17,.93,12.22,1.49,18.41,2.51,35.02,7.36,50.01,15.37,16.56,8.84,31.14,21.54,43.97,39.22,17.11,23.57,32.06,53.95,56.82,68.96,31.31,18.98,72.47,14.81,107.72,23.19,7.08,1.69,13.92,3.88,20.4,6.87,13.4,6.17,25.23,15.77,34.35,31.33,12.67,21.6,15.37,47.63,24.46,70.55,3.92,9.88,9.02,19.17,16.62,27.29,20.32,21.71,50.92,17.91,67.57,17.94" fill="#c1d1ac"/>
    <path d="M.38,311.47s10.69,.05,21.43,.67c19.49,1.13,29.15,12.99,87.43,39.8,37.3,17.16,86.29,.62,115.13,18.77,73.91,46.5,53.16,80.08,108.49,107.32,55.33,27.24,119.88,24.54,146.39,82.22,26.51,57.68,16.07,89.91,66.86,97.28,32.66,4.74,49.91,4.65,49.91,4.65" fill="none" stroke="#fff" stroke-miterlimit="10" stroke-width=".95"/>
</svg>