<?xml version="1.0" encoding="UTF-8"?>
<svg id="Layer_1" data-name="Layer 1" xmlns="http://www.w3.org/2000/svg" viewBox="0 0 11.34 11.32">
  <path d="M0,5.64c0,3.14,2.53,5.67,5.67,5.67s5.67-2.53,5.67-5.67S8.81-.02,5.67,0C2.53,0,0,2.51,0,5.64m2.16-.02c0-.27,0-.54,.01-.79,.02-.27,.02-.54,.04-.77,.04-.55,.23-.98,.59-1.34,.33-.34,.77-.53,1.31-.55,.25,0,.51-.02,.78-.02h1.55c.27,0,.53,.01,.81,.02,.56,.02,1.01,.21,1.32,.56,.38,.35,.57,.81,.59,1.35,.01,.5,.04,1.03,.04,1.55s-.01,1.05-.04,1.56c-.02,.55-.21,1-.59,1.35-.34,.38-.79,.54-1.32,.57-.26,.01-.53,.01-.79,.02-.27,.02-.53,0-.77,0h-.77c-.26,0-.53-.01-.77-.02-.54-.04-.98-.2-1.35-.57-.35-.35-.55-.8-.59-1.35-.01-.26-.04-.52-.04-.79s-.01-.53-.01-.79m.63,0c0,.57,.01,1.1,.05,1.54,.02,.38,.14,.69,.4,.94,.25,.23,.56,.36,.91,.39,.23,.02,.49,.04,.76,.04h1.55c.26,0,.5-.01,.74-.04,.4-.04,.7-.15,.94-.39,.26-.25,.38-.53,.39-.91,.01-.49,.04-1.01,.04-1.55s-.01-1.06-.04-1.52c-.04-.39-.14-.69-.39-.93-.23-.25-.54-.36-.94-.4-.23-.01-.48-.01-.75-.01s-.52-.01-.79-.01-.53,0-.8,.01c-.25,.02-.5,0-.72,.01-.39,.05-.69,.15-.91,.38-.23,.28-.36,.55-.39,.91-.04,.47-.05,.97-.05,1.54m1.09,.04c0-.5,.2-.93,.54-1.27,.36-.36,.76-.54,1.25-.54s.89,.18,1.25,.54c.34,.34,.54,.77,.54,1.27s-.2,.91-.54,1.25-.74,.54-1.25,.54-.93-.19-1.25-.54c-.34-.38-.54-.77-.54-1.25m.64,0c0,.32,.11,.59,.33,.8,.23,.26,.52,.35,.82,.35s.59-.09,.82-.35c.22-.21,.33-.48,.33-.8s-.11-.61-.33-.84c-.23-.22-.52-.34-.82-.34s-.59,.12-.82,.34c-.22,.23-.33,.5-.33,.84m2.54-1.81c0-.29,.14-.41,.41-.41,.29,0,.42,.12,.42,.41,0,.27-.13,.41-.42,.41-.27,0-.41-.14-.41-.41" fill="#231f20"/>
</svg>