<?xml version="1.0" encoding="UTF-8"?>
<svg id="Layer_1" data-name="Layer 1" xmlns="http://www.w3.org/2000/svg" viewBox="0 0 152.8 157.59">
  <path d="M77.31,157.59c41.69,0,75.49-33.8,75.49-75.49S119,6.61,77.31,6.61,1.82,40.41,1.82,82.1s33.8,75.49,75.49,75.49" fill="#fff"/>
  <path d="M77.31,152.41c38.83,0,70.3-31.48,70.3-70.3S116.14,11.8,77.31,11.8,7,43.27,7,82.1s31.48,70.3,70.3,70.3" fill="#fff"/>
  <path d="M77.31,152.41c38.83,0,70.3-31.48,70.3-70.3S116.14,11.8,77.31,11.8,7,43.27,7,82.1s31.48,70.3,70.3,70.3Z" fill="none" stroke="#488535" stroke-width="1.1"/>
  <path d="M82.73,87.01c.1,.07,.16,.11,.22,.15,4.12,2.86,8.73,4.44,13.65,5.15,2.71,.39,5.43,.37,8.16,.36,.8,0,1.49-.15,1.96-.86,.12-.18,.31-.35,.32-.54,.05-2.08,.08-4.16-.29-6.22-.94-5.24-3.18-9.85-6.64-13.87-.95-1.1-1.97-2.12-2.95-3.17,.49-.73,1-1.46,1.48-2.21,1.11-1.75,1.72-3.67,2.22-5.68,.98-3.96,2.32-7.81,3.82-11.6,1.32-3.33,2.77-6.61,4.79-9.59,.76-1.12,1.75-2.09,2.52-3.21,1.22-1.78,2.38-3.61,3.52-5.46,1.96-3.2,1.88-6.5,.26-9.79-.71-1.43-1.63-2.76-2.46-4.14-.09-.14-.16-.31-.19-.47-.12-.64-.19-1.3-.33-1.94-.68-3.07-2.58-5.34-4.92-7.28-2.39-1.98-5.27-2.7-8.3-2.95-.18-.02-.38-.11-.54-.21-.59-.41-1.13-.89-1.75-1.25-2.09-1.25-4.37-1.85-6.79-1.98-2.82-.15-5.61-.07-8.38,.61-3.34,.82-6.43,2.21-9.38,3.93-.4,.23-.62,.23-.96-.09-1.18-1.09-2.49-1.98-3.89-2.78-2.37-1.36-4.93-1.54-7.57-1.33-1.23,.1-2.34,.54-3.29,1.32-1.64,1.36-3.07,2.89-4.01,4.83-.1,.2-.29,.4-.49,.51-2,1.16-3.62,2.75-4.92,4.63-1.12,1.62-1.56,3.48-1.55,5.44,0,.73-.04,1.4-.47,2.04-.25,.36-.38,.82-.51,1.25-.47,1.53-.37,3.11-.28,4.66,.11,1.73,.71,3.24,2.02,4.47,1.13,1.06,1.91,2.4,2.46,3.86,.39,1.04,.74,2.1,.29,3.23-.04,.1-.02,.23-.03,.35-.12,4.42,.12,8.8,1.07,13.14,.99,4.59,2.57,8.95,5.16,12.91,.05,.08,.09,.18,.15,.28-.17,.12-.33,.22-.48,.32-4.18,2.92-7.75,6.44-10.43,10.8-3.24,5.28-4.45,11.07-4.24,17.21,0,.12,.06,.26,.14,.35,.27,.29,.53,.75,.84,.8,.76,.12,1.55,.05,2.33,.05,1.04-1.09,2.38-1.7,3.74-2.23,4.75-1.87,9.76-2.55,14.81-3.14,.05,.14,.08,.27,.13,.39,.62,1.6,1.15,3.25,1.89,4.8,1.86,3.87,4.54,7.15,7.59,10.15,.52,.5,1.01,.73,1.75,.74,.8,0,1.39-.17,1.89-.8,.21-.26,.3-.48,.32-.81,.04-.92,.04-1.85,.22-2.75,.94-4.7,3.41-8.63,6.31-12.39" fill="#fff"/>
  <path d="M82.73,87.01c.1,.07,.16,.11,.22,.15,4.12,2.86,8.73,4.44,13.65,5.15,2.71,.39,5.43,.37,8.16,.36,.8,0,1.49-.15,1.96-.86,.12-.18,.31-.35,.32-.54,.05-2.08,.08-4.16-.29-6.22-.94-5.24-3.18-9.85-6.64-13.87-.95-1.1-1.97-2.12-2.95-3.17,.49-.73,1-1.46,1.48-2.21,1.11-1.75,1.72-3.67,2.22-5.68,.98-3.96,2.32-7.81,3.82-11.6,1.32-3.33,2.77-6.61,4.79-9.59,.76-1.12,1.75-2.09,2.52-3.21,1.22-1.78,2.38-3.61,3.52-5.46,1.96-3.2,1.88-6.5,.26-9.79-.71-1.43-1.63-2.76-2.46-4.14-.09-.14-.16-.31-.19-.47-.12-.64-.19-1.3-.33-1.94-.68-3.07-2.58-5.34-4.92-7.28-2.39-1.98-5.27-2.7-8.3-2.95-.18-.02-.38-.11-.54-.21-.59-.41-1.13-.89-1.75-1.25-2.09-1.25-4.37-1.85-6.79-1.98-2.82-.15-5.61-.07-8.38,.61-3.34,.82-6.43,2.21-9.38,3.93-.4,.23-.62,.23-.96-.09-1.18-1.09-2.49-1.98-3.89-2.78-2.37-1.36-4.93-1.54-7.57-1.33-1.23,.1-2.34,.54-3.29,1.32-1.64,1.36-3.07,2.89-4.01,4.83-.1,.2-.29,.4-.49,.51-2,1.16-3.62,2.75-4.92,4.63-1.12,1.62-1.56,3.48-1.55,5.44,0,.73-.04,1.4-.47,2.04-.25,.36-.38,.82-.51,1.25-.47,1.53-.37,3.11-.28,4.66,.11,1.73,.71,3.24,2.02,4.47,1.13,1.06,1.91,2.4,2.46,3.86,.39,1.04,.74,2.1,.29,3.23-.04,.1-.02,.23-.03,.35-.12,4.42,.12,8.8,1.07,13.14,.99,4.59,2.57,8.95,5.16,12.91,.05,.08,.09,.18,.15,.28-.17,.12-.33,.22-.48,.32-4.18,2.92-7.75,6.44-10.43,10.8-3.24,5.28-4.45,11.07-4.24,17.21,0,.12,.06,.26,.14,.35,.27,.29,.53,.75,.84,.8,.76,.12,1.55,.05,2.33,.05,1.04-1.09,2.38-1.7,3.74-2.23,4.75-1.87,9.76-2.55,14.81-3.14,.05,.14,.08,.27,.13,.39,.62,1.6,1.15,3.25,1.89,4.8,1.86,3.87,4.54,7.15,7.59,10.15,.52,.5,1.01,.73,1.75,.74,.8,0,1.39-.17,1.89-.8,.21-.26,.3-.48,.32-.81,.04-.92,.04-1.85,.22-2.75,.94-4.7,3.41-8.63,6.31-12.39Z" fill="none" stroke="#fff" stroke-miterlimit="10" stroke-width=".37"/>
  <path d="M82.73,87.01c-2.91,3.75-5.37,7.69-6.31,12.39-.18,.9-.18,1.83-.22,2.75-.02,.32-.11,.55-.32,.81-.5,.63-1.1,.81-1.89,.8-.73,0-1.23-.24-1.75-.74-3.05-3-5.73-6.28-7.59-10.15-.74-1.55-1.27-3.2-1.89-4.8-.05-.12-.08-.24-.13-.39-5.05,.59-10.05,1.27-14.81,3.14-1.36,.54-2.7,1.15-3.74,2.23-.78,0-1.57,.07-2.33-.05-.32-.05-.58-.51-.84-.8-.08-.09-.13-.23-.14-.35-.21-6.14,1-11.93,4.24-17.21,2.68-4.36,6.25-7.88,10.43-10.8,.16-.11,.31-.21,.48-.32-.05-.11-.09-.2-.15-.28-2.59-3.96-4.16-8.32-5.16-12.91-.94-4.34-1.19-8.72-1.07-13.14,0-.12-.02-.25,.03-.35,.45-1.13,.1-2.19-.29-3.23-.55-1.46-1.34-2.8-2.46-3.86-1.31-1.23-1.91-2.74-2.02-4.47-.09-1.56-.19-3.14,.28-4.66,.13-.43,.26-.89,.51-1.25,.44-.64,.48-1.31,.47-2.04,0-1.96,.43-3.82,1.55-5.44,1.3-1.88,2.92-3.46,4.92-4.63,.2-.11,.39-.31,.49-.51,.94-1.94,2.37-3.48,4.01-4.83,.94-.78,2.06-1.22,3.29-1.32,2.64-.21,5.2-.04,7.57,1.33,1.39,.8,2.71,1.7,3.89,2.78,.34,.32,.57,.32,.96,.09,2.95-1.72,6.05-3.12,9.38-3.93,2.76-.68,5.55-.76,8.38-.61,2.42,.13,4.7,.73,6.79,1.98,.61,.36,1.16,.84,1.75,1.25,.16,.11,.35,.2,.54,.21,3.03,.24,5.9,.96,8.3,2.95,2.34,1.94,4.24,4.21,4.92,7.28,.14,.64,.21,1.3,.33,1.94,.03,.16,.1,.33,.19,.47,.82,1.38,1.75,2.71,2.46,4.14,1.62,3.28,1.71,6.59-.26,9.79-1.13,1.84-2.29,3.68-3.52,5.46-.77,1.12-1.76,2.08-2.52,3.21-2.02,2.98-3.46,6.26-4.79,9.59-1.5,3.79-2.84,7.64-3.82,11.6-.5,2.01-1.11,3.93-2.22,5.68-.48,.75-.99,1.48-1.48,2.21,.98,1.05,2,2.07,2.95,3.17,3.46,4.02,5.71,8.63,6.64,13.87,.37,2.06,.34,4.14,.29,6.22,0,.18-.2,.36-.32,.54-.47,.71-1.16,.86-1.96,.86-2.73,.01-5.45,.04-8.16-.36-4.93-.71-9.53-2.29-13.65-5.15-.06-.04-.12-.08-.22-.15" fill="#fff"/>
  <path d="M82.73,87.01c-2.91,3.75-5.37,7.69-6.31,12.39-.18,.9-.18,1.83-.22,2.75-.02,.32-.11,.55-.32,.81-.5,.63-1.1,.81-1.89,.8-.73,0-1.23-.24-1.75-.74-3.05-3-5.73-6.28-7.59-10.15-.74-1.55-1.27-3.2-1.89-4.8-.05-.12-.08-.24-.13-.39-5.05,.59-10.05,1.27-14.81,3.14-1.36,.54-2.7,1.15-3.74,2.23-.78,0-1.57,.07-2.33-.05-.32-.05-.58-.51-.84-.8-.08-.09-.13-.23-.14-.35-.21-6.14,1-11.93,4.24-17.21,2.68-4.36,6.25-7.88,10.43-10.8,.16-.11,.31-.21,.48-.32-.05-.11-.09-.2-.15-.28-2.59-3.96-4.16-8.32-5.16-12.91-.94-4.34-1.19-8.72-1.07-13.14,0-.12-.02-.25,.03-.35,.45-1.13,.1-2.19-.29-3.23-.55-1.46-1.34-2.8-2.46-3.86-1.31-1.23-1.91-2.74-2.02-4.47-.09-1.56-.19-3.14,.28-4.66,.13-.43,.26-.89,.51-1.25,.44-.64,.48-1.31,.47-2.04,0-1.96,.43-3.82,1.55-5.44,1.3-1.88,2.92-3.46,4.92-4.63,.2-.11,.39-.31,.49-.51,.94-1.94,2.37-3.48,4.01-4.83,.94-.78,2.06-1.22,3.29-1.32,2.64-.21,5.2-.04,7.57,1.33,1.39,.8,2.71,1.7,3.89,2.78,.34,.32,.57,.32,.96,.09,2.95-1.72,6.05-3.12,9.38-3.93,2.76-.68,5.55-.76,8.38-.61,2.42,.13,4.7,.73,6.79,1.98,.61,.36,1.16,.84,1.75,1.25,.16,.11,.35,.2,.54,.21,3.03,.24,5.9,.96,8.3,2.95,2.34,1.94,4.24,4.21,4.92,7.28,.14,.64,.21,1.3,.33,1.94,.03,.16,.1,.33,.19,.47,.82,1.38,1.75,2.71,2.46,4.14,1.62,3.28,1.71,6.59-.26,9.79-1.13,1.84-2.29,3.68-3.52,5.46-.77,1.12-1.76,2.08-2.52,3.21-2.02,2.98-3.46,6.26-4.79,9.59-1.5,3.79-2.84,7.64-3.82,11.6-.5,2.01-1.11,3.93-2.22,5.68-.48,.75-.99,1.48-1.48,2.21,.98,1.05,2,2.07,2.95,3.17,3.46,4.02,5.71,8.63,6.64,13.87,.37,2.06,.34,4.14,.29,6.22,0,.18-.2,.36-.32,.54-.47,.71-1.16,.86-1.96,.86-2.73,.01-5.45,.04-8.16-.36-4.93-.71-9.53-2.29-13.65-5.15-.06-.04-.12-.08-.22-.15Z" fill="none" stroke="#fff" stroke-miterlimit="10" stroke-width=".37"/>
  <path d="M74.84,78.39c-.21-.34-.41-.68-.6-1.02-.69,1.61-1.3,3.23-1.81,4.79-.58,1.81-.96,3.54-1.18,5.04s-.24,2.77-.15,3.65c.04,.44,.09,.79,.14,1.02,.05,.23,.09,.35,.09,.35,0,0-.02-.03-.04-.09s-.05-.14-.09-.26c-.07-.23-.15-.57-.23-1.01-.15-.88-.23-2.17-.13-3.71,.1-1.54,.36-3.33,.8-5.21s1.04-3.86,1.74-5.8c.03-.08,.05-.16,.08-.23-2.3-4.67-3.25-9.46-3.58-11.52-.01-.09-.02-.18-.02-.26-1.7,2.44-3.79,5.95-4.98,9.88-4.47,14.78,8.91,26.69,8.91,26.69,0,0-.87-4.97,6.18-15.12,.21-.3,.41-.61,.6-.91-2.14-1.61-4.12-3.66-5.75-6.29" fill="#80cc28"/>
  <path d="M74.84,78.39c-.21-.34-.41-.68-.6-1.02-.69,1.61-1.3,3.23-1.81,4.79-.58,1.81-.96,3.54-1.18,5.04-.21,1.5-.24,2.77-.15,3.65,.04,.44,.09,.79,.14,1.02,.05,.23,.09,.35,.09,.35,0,0-.02-.03-.04-.09-.02-.06-.05-.14-.09-.26-.07-.23-.15-.57-.23-1.01-.15-.88-.23-2.17-.13-3.71,.1-1.54,.36-3.33,.8-5.21,.45-1.88,1.04-3.86,1.74-5.8,.03-.08,.05-.16,.08-.23-2.3-4.67-3.25-9.46-3.58-11.52-.01-.09-.02-.18-.02-.26-1.7,2.44-3.79,5.95-4.98,9.88-4.47,14.78,8.91,26.69,8.91,26.69,0,0-.87-4.97,6.18-15.12,.21-.3,.41-.61,.6-.91-2.14-1.61-4.13-3.66-5.75-6.29Z" fill="none" stroke="#231f20" stroke-miterlimit="10" stroke-width=".38"/>
  <path d="M42.78,90.4c.53-.57,4.12-3.98,15.34-5.32,1.25-.15,2.39-.38,3.43-.67-.56-3.22-.46-6.43,.31-9.53l-.62,.21c-1.93,.6-3.83,1.31-5.57,2.07s-3.29,1.62-4.55,2.46-2.23,1.66-2.84,2.3c-.3,.32-.53,.59-.66,.79-.14,.19-.2,.3-.2,.3,0,0,.02-.03,.04-.08,.03-.05,.07-.14,.14-.23,.12-.21,.33-.49,.61-.84,.56-.7,1.48-1.61,2.69-2.55,1.21-.95,2.73-1.94,4.43-2.85,1.7-.91,3.58-1.78,5.5-2.55,.24-.1,.47-.2,.7-.3,.23-.1,.46-.2,.68-.29,.04-.02,.09-.04,.13-.05,1.03-3.17,2.55-6.04,3.97-8.22,.96-1.48,2.22-2.99,3.29-4.18-14.35,1.05-26,12.64-26.78,27.39-.04,.73-.05,1.45-.04,2.16" fill="#488535"/>
  <path d="M42.78,90.4c.53-.57,4.12-3.98,15.34-5.32,1.25-.15,2.39-.38,3.43-.67-.56-3.22-.46-6.43,.31-9.53l-.62,.21c-1.93,.6-3.83,1.31-5.57,2.07-1.73,.76-3.29,1.62-4.55,2.46-1.27,.84-2.23,1.66-2.84,2.3-.3,.32-.53,.59-.66,.79-.14,.19-.2,.3-.2,.3,0,0,.02-.03,.04-.08,.03-.05,.07-.14,.14-.23,.12-.21,.33-.49,.61-.84,.56-.7,1.48-1.61,2.69-2.55,1.21-.95,2.73-1.94,4.43-2.85,1.7-.91,3.58-1.78,5.5-2.55,.24-.1,.47-.2,.7-.3,.23-.1,.46-.2,.68-.29,.04-.02,.09-.04,.13-.05,1.03-3.17,2.55-6.04,3.97-8.22,.96-1.48,2.22-2.99,3.29-4.18-14.35,1.05-26,12.64-26.78,27.39-.04,.73-.05,1.45-.04,2.16Z" fill="none" stroke="#231f20" stroke-miterlimit="10" stroke-width=".38"/>
  <path d="M104.59,89.4c-.48-14.89-12.3-27.19-27.45-27.98-.15,0-.29-.01-.44-.02,1.23,.92,3.09,2.42,5.94,4.81l.79,.79c.17,.18,.33,.38,.5,.57,.34,.38,.64,.79,.95,1.21,.16,.2,.29,.43,.44,.64,.14,.21,.28,.43,.42,.66,.13,.23,.26,.46,.39,.68l.19,.34c.06,.11,.13,.23,.18,.35,.12,.23,.23,.47,.34,.71l.34,.7c.83,1.84,1.76,3.64,2.73,5.27s2.01,3.07,2.99,4.22c.98,1.15,1.92,2.02,2.63,2.54,.36,.26,.65,.45,.86,.56,.21,.12,.33,.16,.33,.16,0,0-.03,0-.09-.03-.05-.02-.14-.05-.25-.11-.22-.1-.53-.27-.91-.5-.76-.47-1.77-1.27-2.86-2.36-1.09-1.09-2.25-2.47-3.37-4.05s-2.2-3.34-3.2-5.15c-.12-.23-.25-.44-.38-.66s-.25-.43-.38-.64c-.06-.11-.13-.21-.2-.32l-.2-.3c-.14-.2-.27-.41-.41-.61-.14-.19-.29-.38-.44-.57-.15-.19-.29-.39-.45-.56-.31-.36-.61-.71-.94-1.02-.16-.16-.32-.32-.48-.48-.17-.14-.34-.29-.5-.43-.08-.07-.16-.14-.25-.21-.09-.07-.17-.13-.26-.19-.17-.12-.34-.25-.5-.37-.69-.44-1.36-.84-2.02-1.11-1.31-.57-2.48-.8-3.32-.9-.11-.02-.2-.03-.3-.04-.09-.02-.18-.02-.27-.02-.17-.01,.07,.29-.05,.28-.11-.01-.34,.14-.4,.14,.4,2.5,1.38,7.9,4.49,12.96,7.74,12.55,24.31,11.18,25.79,11.03" fill="#488535"/>
  <path d="M104.59,89.4c-.48-14.89-12.3-27.19-27.45-27.98-.15,0-.29-.01-.44-.02,1.23,.92,3.09,2.42,5.94,4.81,.09,.09,.61,.61,.79,.79,.17,.18,.33,.38,.5,.57,.34,.38,.64,.79,.95,1.21,.16,.2,.29,.43,.44,.64,.14,.21,.28,.43,.42,.66,.13,.23,.26,.46,.39,.68l.19,.34c.06,.11,.13,.23,.18,.35,.12,.23,.23,.47,.34,.71l.34,.7c.83,1.84,1.76,3.64,2.73,5.27,.97,1.63,2.01,3.07,2.99,4.22,.98,1.15,1.92,2.02,2.63,2.54,.36,.26,.65,.45,.86,.56,.21,.12,.33,.16,.33,.16,0,0-.03,0-.09-.03-.05-.02-.14-.05-.25-.11-.22-.1-.53-.27-.91-.5-.76-.47-1.77-1.27-2.86-2.36-1.09-1.09-2.25-2.47-3.37-4.05-1.11-1.58-2.2-3.34-3.2-5.15-.12-.23-.25-.44-.38-.66s-.25-.43-.38-.64c-.06-.11-.13-.21-.2-.32l-.2-.3c-.14-.2-.27-.41-.41-.61-.14-.19-.29-.38-.44-.57-.15-.19-.29-.39-.45-.56-.31-.36-.61-.71-.94-1.02-.16-.16-.32-.32-.48-.48-.17-.14-.34-.29-.5-.43-.08-.07-.16-.14-.25-.21-.09-.07-.17-.13-.26-.19-.17-.12-.34-.25-.5-.37-.69-.44-1.36-.84-2.02-1.11-1.31-.57-2.48-.8-3.32-.9-.11-.02-.2-.03-.3-.04-.09-.02-.18-.02-.27-.02-.17-.01,.07,.29-.05,.28-.11-.01-.34,.14-.4,.14,.4,2.5,1.38,7.9,4.49,12.96,7.74,12.55,24.31,11.18,25.79,11.03Z" fill="none" stroke="#231f20" stroke-miterlimit="10" stroke-width=".38"/>
  <path d="M98.13,5.11h-.15s-.18-.1-.18-.1c-3.48-2.8-8.38-3.89-13.5-3.04-3.64,.61-7.08,2.18-9.45,4.32l.05,.04c.68,.16,1.48,.25,2.25,.34,2.13,.25,4.32,.5,5.75,2.24,10.07-1.69,18.41,3.46,20.29,12.51,.7-1.58,1.77-2.8,2.8-3.97,1.58-1.81,2.93-3.36,2.76-5.94-.46-3.58-6.7-6.22-10.63-6.39" fill="#f14a7b"/>
  <path d="M98.13,5.11h-.15s-.18-.1-.18-.1c-3.48-2.8-8.38-3.89-13.5-3.04-3.64,.61-7.08,2.18-9.45,4.32l.05,.04c.68,.16,1.48,.25,2.25,.34,2.13,.25,4.32,.5,5.75,2.24,10.07-1.69,18.41,3.46,20.29,12.51,.7-1.58,1.77-2.8,2.8-3.97,1.58-1.81,2.93-3.36,2.76-5.94-.46-3.58-6.7-6.22-10.63-6.39Z" fill="none" stroke="#231f20" stroke-miterlimit="10" stroke-width=".38"/>
  <path d="M48.31,18.68c2.73-.38,5.32,.93,7.81,2.2,.86,.44,1.75,.89,2.61,1.24,.31-2,1.58-8.73,5.84-11.82,.76-.55,3.52-2.41,7.05-3.09-2.04-2.28-5.73-4.94-9.48-5.07-1.89-.07-3.52,.54-4.84,1.81-.63,.61-1.12,1.4-1.59,2.17-.53,.86-1.07,1.74-1.83,2.44-3.87,2.27-5.75,4.15-5.5,8.3,.03,.25-.01,.56-.05,.9-.03,.27-.1,.82-.02,.95l.08-.03h-.08Z" fill="#db144a" stroke="#231f20" stroke-miterlimit="10" stroke-width=".38"/>
  <path d="M77.19,46.46c.76-2.51,3-4.23,5.18-5.91,2.12-1.63,4.32-3.32,4.93-5.64,.73-2-.15-4.63-2.13-6.43-1.34-1.21-2.84-1.75-4.25-1.51-.36,.06-.7,.17-1.03,.32,4.09,3.43,1.45,8.62-.66,12.79-1.29,2.52-2.51,4.93-2.02,6.38" fill="#b11039"/>
  <path d="M77.19,46.46c.76-2.51,3-4.23,5.18-5.91,2.12-1.63,4.32-3.32,4.93-5.64,.73-2-.15-4.63-2.13-6.43-1.34-1.21-2.84-1.75-4.25-1.51-.36,.06-.7,.17-1.03,.32,4.09,3.43,1.45,8.62-.66,12.79-1.29,2.52-2.51,4.93-2.02,6.38Z" fill="none" stroke="#231f20" stroke-miterlimit="10" stroke-width=".38"/>
  <path d="M101.04,50.67s.03-.03,.05-.04c1.56-6.52,4.23-11.95,8.14-16.61-1.76,.68-2.59,1.07-3.32,1.4-.64,.29-1.29,.59-2.39,1.05l-.08,.15c-.78,1.33-3,12.4-2.39,14.05" fill="#db144a"/>
  <path d="M101.04,50.67s.03-.03,.05-.04c1.56-6.52,4.23-11.95,8.14-16.61-1.76,.68-2.59,1.07-3.32,1.4-.64,.29-1.29,.59-2.39,1.05l-.08,.15c-.78,1.33-3,12.4-2.39,14.05Z" fill="none" stroke="#231f20" stroke-miterlimit="10" stroke-width=".38"/>
  <path d="M65.17,23.76c-1.28,.75-1.79,1.85-1.56,3.38,.44,2.29,4.26,4.82,9.12,6.05,.14-.15,.17-.28,.18-.37,.08-.68-.89-1.79-1.75-2.77-1.23-1.4-2.39-2.71-1.86-3.99,.47-1.14,2.18-1.73,5.53-1.93,.72-.07,1.16-.17,1.43-.25-1.44-.74-5.38-1.48-8.62-.94-1,.16-1.84,.44-2.48,.82" fill="#b11039"/>
  <path d="M65.17,23.76c-1.28,.75-1.79,1.85-1.56,3.37,.44,2.29,4.26,4.82,9.12,6.05,.14-.15,.17-.28,.18-.37,.08-.68-.89-1.79-1.75-2.77-1.23-1.4-2.39-2.71-1.86-3.99,.47-1.14,2.18-1.73,5.53-1.93,.72-.07,1.16-.17,1.43-.25-1.44-.74-5.38-1.48-8.62-.94-1,.16-1.84,.44-2.48,.82Z" fill="none" stroke="#231f20" stroke-miterlimit="10" stroke-width=".38"/>
  <path d="M73.35,27.02c3.92,3.96,2.7,6.97,1.81,9.17-.5,1.23-.9,2.23-.5,3.2,2.44-.81,3.46-3.6,3.38-6.09-.09-2.79-1.58-5.82-4.69-6.27" fill="#b11039"/>
  <path d="M73.35,27.02c3.92,3.96,2.7,6.97,1.81,9.17-.5,1.23-.9,2.23-.5,3.2,2.44-.81,3.46-3.6,3.37-6.09-.09-2.79-1.58-5.82-4.69-6.27Z" fill="none" stroke="#231f20" stroke-miterlimit="10" stroke-width=".38"/>
  <path d="M70.03,11.41c-3.22,1.51-5.45,4.75-6.27,9.14,2.09-1.11,4.23-1.8,6.32-2.16,6.3-1.05,12.33,.99,16.23,4.14,4.67,3.78,6.67,9.24,5.45,14.74,7.05-4.23,9.57-9.75,7.46-16.43-2.02-6.39-8.41-9.35-18-8.32l-.14,.02-.2-.07c-3.87-2.17-7.71-2.53-10.86-1.05" fill="#f14a7b"/>
  <path d="M70.03,11.41c-3.22,1.51-5.45,4.75-6.27,9.14,2.09-1.11,4.23-1.8,6.32-2.16,6.3-1.05,12.33,.99,16.23,4.14,4.67,3.78,6.67,9.24,5.45,14.74,7.05-4.23,9.57-9.75,7.46-16.43-2.02-6.39-8.41-9.35-18-8.32l-.14,.02-.2-.07c-3.87-2.17-7.71-2.53-10.86-1.05Z" fill="none" stroke="#231f20" stroke-miterlimit="10" stroke-width=".38"/>
  <path d="M46.72,23.3c-.23,1.05,.55,2.75,2.19,4.77,1.61,2.12,3.26,4.31,2.86,7.02-1.39,15.04,5.3,33.33,20.41,38.07-1.23-6.63-1.35-12.71-.37-18.09,.97-8.18,1.88-15.93-6.76-20.54-3.31-1.87-4.96-3.96-6.57-5.99-2.3-2.9-4.29-5.41-11.04-6.18-.41,.24-.64,.55-.73,.95" fill="#db144a"/>
  <path d="M46.72,23.3c-.23,1.05,.55,2.75,2.19,4.77,1.61,2.12,3.26,4.31,2.86,7.02-1.39,15.04,5.3,33.33,20.41,38.07-1.23-6.63-1.35-12.71-.37-18.09,.97-8.18,1.88-15.93-6.76-20.54-3.31-1.87-4.96-3.96-6.57-5.99-2.3-2.9-4.29-5.41-11.04-6.18-.41,.24-.64,.55-.73,.95Z" fill="none" stroke="#231f20" stroke-miterlimit="10" stroke-width=".38"/>
  <path d="M110.38,16.43c-.44,.07-1.06,1.25-1.56,2.2h0s-.14-.06-.14-.06l.14,.08c-.93,1.75-2.07,3.93-4.11,5.16l-.03,.95c.08,2.81,.14,4.84-2.27,8.98,1.26-.79,2.77-1.39,4.38-2.02,4.65-1.83,9.03-3.56,7.09-9.77-2.25-4.95-3.19-5.5-3.49-5.51" fill="#db144a"/>
  <path d="M110.38,16.43c-.44,.07-1.06,1.25-1.56,2.2h0s-.14-.06-.14-.06l.14,.08c-.93,1.75-2.07,3.93-4.11,5.16l-.03,.95c.08,2.81,.14,4.84-2.27,8.98,1.26-.79,2.77-1.39,4.38-2.02,4.65-1.83,9.03-3.56,7.09-9.77-2.25-4.95-3.19-5.5-3.49-5.51Z" fill="none" stroke="#231f20" stroke-miterlimit="10" stroke-width=".38"/>
  <path d="M72.82,108.82c1.42-.61,2.69-1.27,3.5-2.58,.51-.81,.98-1.67,1.64-2.35,1.64-1.7,4.23-1.08,5.09,1.15,.35,.91,.02,1.34-.38,2.3-.3,.72-.74,.93-1.61,1.92-.52,.55-.86,.91-1.32,1.37-.29,.29-.55,.58-.83,.88,.34,.24,.7,.7,1.03,.69,1.39-.07,2.83-.09,4.16-.48,3.13-.91,5.81-2.67,8.22-4.85,2.28-2.06,5.05-2.64,7.94-2.24,.85,.12,1.77,.38,2.67,.54,.76,.13,1.21,.72,1.27,1.52,.03,.37,0,.75,.04,1.12,.17,1.45,1.04,1.98,2.34,1.38,.52-.23,1.09-.48,1.44-.89,2.46-2.91,5.54-4.58,9.39-4.64,.09-1.56,.11-3.04,.25-4.52,.67-6.76,2.47-13.02,7.65-17.89,1.73-1.63,3.69-2.15,5.96-1.81,1.01,.16,2.34,1.69,2.54,2.91,.51,3.11,.08,6.13-.93,9.07-1.89,5.49-4.46,10.62-8.07,15.21-.15,.19-.31,.36-.47,.53-.41,.43-1,.79-.51,1.52,.46,.68,1.14,.88,1.87,.67,1.16-.32,2.34-.65,3.45-1.14,1.19-.53,2.35-1.16,3.42-1.89,2.18-1.5,4.59-1.91,7.14-1.77,.27,.02,.52,.26,.79,.38,.32,.14,.65,.36,.98,.39,1.32,.09,1.89,.57,2.14,1.88,.05,.3,.13,.59,.23,.88,.45,1.43,1.13,1.76,2.47,1.08,.9-.45,1.77-1,2.58-1.6,1.13-.83,2.44-.82,3.28,.12,.9,1.02,.79,2.36-.25,3.34-2.43,2.28-5.25,3.49-8.61,2.88-.84-.16-1.63-.71-2.39-1.18-.42-.25-.73-.7-.88-.86-1.76,.93-3.33,2.04-5.07,2.62-1.82,.6-3.81,.71-4.98-1.36-4.93,1.46-8.18,1.14-10-1.15-2.02,1.03-3.91,2.22-5.97,2.95-1.38,.48-3,.38-4.51,.38-.45,0-.98-.43-1.35-.8-.45-.45-.89-.67-1.52-.58-2.54,.38-4.82,.02-6.38-2.33-.61,.48-1.15,.89-1.67,1.32-1.72,1.46-3.73,1.98-5.94,1.79-.36-.03-.82-.1-1.04-.33-.62-.71-1.15-.37-1.75,0-3.22,1.93-6.72,2.79-10.47,2.58-1.61-.09-3.04-.62-4.16-2.13,.39,2.04,.89,3.82,1.05,5.64,.21,2.31,.28,4.66,.16,6.98-.1,1.79-.31,3.68-.95,5.33-1.58,4.11-4.8,6.48-9.1,7.2-3.23,.55-6.52,.6-9.46-1.18-3-1.82-4.77-4.29-4.9-8.07-.19-5.31,2.11-9.22,5.87-12.57,.75-.68,1.5-1.35,2.5-2.25-2.67,.21-5.09,.29-6.27-2.36-2.62,.74-5.14,2.27-7.51,.17-2.01,.66-3.91,1.46-5.9,1.89-1.66,.36-3.42,.33-4.61-1.29-.2-.27-.42-.56-.5-.87-.64-2.49,.71-5.97,2.86-7.35,.84-.53,1.74-.59,2.58,0,.9,.63,1.44,2,1.15,2.85-.14,.44-.39,.85-.67,1.42,1.84-.84,3.52-1.74,4.92-3.08,.66-.63,1.29-1.31,1.98-1.91,1.03-.91,1.97-1.08,2.86-.44,1.16,.84,2.2,1.58,1.7,3.2-.04,.12,0,.26,0,.66,1.49-.96,2.88-1.73,4.12-2.69,2.04-1.57,4.36-2.22,6.86-2.41,.34-.02,.68,0,1.02-.05,1.57-.22,1.83-.09,2.7,1.32,.11,.17,.36,.36,.54,.35,1.8-.12,2.74,1.13,3.72,2.3,.3,.36,.55,.77,.88,1.23m-4.71,2.37c-.52-.6-1.43-.09-2.47,1.37,.92-.51,1.68-.94,2.47-1.37" fill="#fff"/>
  <path d="M22.27,115.22c2.5,.93,4.85,1.92,7.28,2.68,4.02,1.25,8.16,1.89,12.39,1.88,1.41,0,2.56,1.02,2.64,2.28,.07,1.29-1.01,2.54-2.39,2.68-5.84,.61-11.46-.38-16.89-2.47-5.9-2.27-11.18-5.58-15.75-9.96-.12-.12-.25-.21-.57-.48-.39,2.2-.79,4.24-1.1,6.29-.21,1.4-.11,2.87-.46,4.22-.53,1.98-2.03,2.6-3.64,1.7-1.11-.62-1.8-1.73-1.93-3.15-.44-4.9,.48-9.62,1.86-14.28,.19-.64,.12-1.1-.27-1.66-.94-1.36-1.76-2.8-2.64-4.19C-.01,99.49-.05,98.12,.03,96.72c.04-.71,1.64-2.46,2.41-2.55,1.38-.17,2.76-.22,3.56,1.25,.2,.37,.37,.78,.42,1.19,.07,.59,.02,1.19,.02,1.79,.09,.02,.18,.03,.26,.05,.12-.28,.26-.56,.36-.85,1.34-3.91,2.66-7.82,4.03-11.73,.23-.64,.21-1.06-.34-1.56-1.37-1.25-1.26-3.25,.16-4.4,.17-.14,.41-.27,.62-.28,1.93-.11,3.86-.2,5,1.78,1.45-1.38,2.79-2.76,4.25-3.99,3.62-3.05,7.86-3.67,12.21-2.28,3.61,1.16,5.6,4.11,6.53,7.72,.87,3.36,.7,6.77,.46,10.19-.23,3.43-.86,6.76-2.12,9.95-1.9,4.82-4.89,8.77-9.83,10.8-1.72,.7-3.64,.91-5.75,1.41" fill="#fff"/>
  <path d="M40.11,123.4c1.91-.07,2.74-.34,2.77-.79v-.14c0-.41-.23-.69-1.2-.69-11.21,0-22.2-4.63-28.07-10.55,1.82,.69,4.1,2.16,8.2,2.16,13.27,0,17-14.09,17-24.3,0-6.15-2.35-12.55-9.33-12.55-6.29,0-10.57,5.39-15.06,12.16,.02-.07,1.11-2.58,1.11-5.41,0-1.08-1.38-1.75-2.35-1.75-.55,0-1.04,.21-1.04,.74,.07,1.73,1.8,.48,1.8,2.28,0,1.52-6.22,18.79-6.7,19.64-1.61-1.89-2.03-4.23-2.03-5.41v-1.01c0-.86-.16-1.34-1.5-1.34-.62,0-1.45,.67-1.45,1.38,0,2.07,4.38,7.83,4.45,7.81-.95,1.8-2.7,8.75-2.7,13.18,0,2.16,.44,3.73,1.61,3.73,.97,0,.67-3.59,1.15-6.45,.57-3.36,1.45-6.66,1.82-7.95,3.87,5.18,16.7,15.25,31.53,15.25m-17.34-11.17c-5.39,0-9.26-1.98-11.54-3.94l-1.13-1.11c-.37-.41-.67-.83-.88-1.2,0-.39,6.89-27.71,20.5-27.71,4.84,0,8.02,4.61,8.02,11.01,0,.95-.53,22.94-14.97,22.94m17.3,1.96c.76,0,1.75-.21,2.97-.69,1.84-.71,3.52-1.64,5-2.77l-.04,.39c0,1.27,.9,2.05,1.82,2.05h.07c1.82-.07,6.27-2.07,7.74-3.2,0,0,.16-.35,.16-.65,0-.18-.07-.34-.25-.44-2.61,1.55-5.21,2.9-6.7,2.9h-.16c-.99-.09-1.31-.62-1.31-1.31,0-.55,.64-1.43,2.23-2.62,.09-.07,.12-.14,.12-.21,0-.3-.69-.57-1.04-.57-.69,0-1.06,.5-1.96,1.38-.3,.99-6.08,4.72-8.5,4.72-.62,0-1.02-.25-1.02-.85,0-.67,.46-1.75,1.61-3.43v-.39c-.14-.25-.28-.39-.39-.39h-.53c-1.29,1.24-2.05,2.81-2.05,4.05,0,1.17,.67,2.03,2.23,2.03m23.89,23.77c-4.24,0-8.62-2.55-8.62-7.35,0-4.14,1.52-9.95,16.15-17.27,0,0,2.69,5.78,2.69,11.82,0,5.18-.73,10.87-8.2,12.6-.6,.14-1.27,.21-2.02,.21m-.23,.79c.85,0,1.66-.07,2.39-.23,8.22-1.7,9.14-7.85,9.14-13.56,0-5.21-1.82-10.27-2.51-12.16,2.25-1.06,4.1-2.07,5.53-3.04,0-.46-.23-.71-.69-.76-2.21,1.24-3.98,2.16-5.32,2.76-.83-2.12-2.12-4.45-3.94-4.45-1.38,0-6.11,5.64-8.84,5.64-1.13,0-1.71-.41-1.71-1.27,0-.92,.67-1.93,2.03-2.97,1.57-1.24,2.97-1.61,5.34-1.93,.74,0,1.11-.14,1.11-.41,0-.46-.39-.69-1.18-.69-2.67,.23-4.84,.99-6.49,2.28-1.66,1.29-2.49,2.65-2.49,4.03,0,1.54,1.36,2.55,2.58,2.55,4.15,0,7.81-5.83,9.65-5.83,1.54,0,2.79,3.64,2.79,3.64-15.11,7.44-16.86,13.7-16.86,18.26,0,5.16,4.47,8.13,9.47,8.13m17.11-23.31c5.07,0,9.28-2.79,12.97-5.48,.18-.09,.32-.3,.32-.46l-.05-.14c-.07-.32-.16-.39-.43-.39-.48,0-5.64,5.44-12.51,5.44-2.39,0-3.66-.88-3.68-2.54l-.02-.28c0-.62,.23-2.16,2.37-2.6v-.39c0-.18-.25-.35-.78-.53h-.12c-1.01,0-2.62,.69-2.67,3.73,0,.6,.41,3.62,4.56,3.64h.04Zm12.88-2.23c3.73,0,6.54-4.17,7.46-4.21,1.06,2.67,2.69,3.55,4.35,3.55,2.83,0,5.71-2.49,5.94-2.79,.05-.05,.07-.12,.07-.19,0-.18-.21-.41-.41-.41-2.49,1.8-4.15,2.56-5.32,2.56-1.77,0-3.13-1.87-3.18-3.78,0-.3-.14-.64-.74-.64-.44,0-4.45,4.46-6.82,4.63,0,0-1.2,0-1.2-.81,0-1.61,2.07-3.25,4.72-3.61,1.13-.16,1.71-.14,1.71-.41,0-.37-.12-.55-.79-.55h-.14c-4.19,.18-7.19,2.86-7.19,4.93,.02,.64,.3,1.75,1.52,1.75m27.92-6.61c-.37-1.45-.55-2.97-.55-4.52,0-1.91,.28-3.91,.85-5.96,1.01-3.71,2.33-6.82,3.91-9.33,1.61-2.51,3.13-3.84,4.56-4.03,.83,.07,1.24,.83,1.24,2.3,0,1.82-.74,4.7-2.21,8.64-2.51,5.8-5.11,10.11-7.81,12.9m-10.29,7.32c3.13-.16,6.24-1.82,9.33-4.98,.83,2.35,2.58,3.52,5.23,3.52,1.96-.23,4.01-.88,6.15-1.91,1.08-.39,1.66-.71,1.75-.97,0-.44-.18-.64-.55-.64-3.09,1.57-5.6,2.42-7.55,2.56h-.18c-2.05,0-3.23-1.27-3.52-3.8,3.18-3.2,6.12-8.11,8.84-14.72,1.22-3.13,1.84-5.8,1.84-8.06,0-2.38-.78-3.57-2.32-3.62-1.8,.14-3.62,1.45-5.43,3.94-1.84,2.46-3.16,5.34-3.96,8.61-.83,3.25-1.22,6.01-1.22,8.27,0,1.87,.18,3.73,.6,5.57-1.2,1.2-2.6,2.32-4.21,3.38-1.34,.88-2.53,1.38-3.59,1.52-.88,0-1.32-.41-1.32-1.25,.05-.88,.67-1.8,1.89-2.74,1.22-.95,2.99-1.59,5.3-1.89,.74,0,1.11-.14,1.11-.41,0-.46-.39-.69-1.18-.69-2.67,.23-4.84,.99-6.52,2.3-1.68,1.31-2.54,2.62-2.54,3.91s.69,1.98,2.07,2.07m21.93-.71c3.73,0,6.54-4.17,7.46-4.21,1.06,2.67,2.7,3.55,4.35,3.55,2.84,0,5.71-2.49,5.95-2.79,.04-.05,.07-.12,.07-.19,0-.18-.21-.41-.41-.41-2.49,1.8-4.14,2.56-5.32,2.56-1.77,0-3.13-1.87-3.18-3.78,0-.3-.14-.64-.74-.64-.44,0-4.45,4.46-6.82,4.63,0,0-1.2,0-1.2-.81,0-1.61,2.07-3.25,4.72-3.61,1.13-.16,1.7-.14,1.7-.41,0-.37-.11-.55-.78-.55h-.14c-4.19,.18-7.18,2.86-7.18,4.93,.02,.64,.3,1.75,1.52,1.75" fill="#231f20"/>
  <path d="M83.33,100.38s.04,.07,.04,.11c.05,.29,.12,.57,.16,.86,.19,1.21,.24,2.44,.12,3.67-.02,.19-.05,.39-.08,.57-.05,.28-.14,.55-.27,.8-.14,.28-.31,.54-.53,.76-.65,.65-1.43,.91-2.33,.75-1.44-.24-2.45-1.61-2.21-3.09,.08-.52,.3-.97,.64-1.36,.12-.14,.26-.25,.41-.35,.18-.11,.36-.21,.55-.29,.27-.11,.54-.21,.8-.32,.28-.11,.56-.21,.83-.33,.28-.13,.54-.27,.79-.45,.39-.28,.71-.64,.93-1.07,.04-.07,.06-.13,.09-.2,.01-.02,.02-.04,.04-.07m-.39,2.8s-.02,.01-.02,.01c0,.02,0,.05,0,.07-.02,.36-.09,.71-.19,1.05-.09,.31-.21,.61-.37,.89-.15,.27-.33,.52-.56,.72-.11,.1-.21,.2-.31,.3-.08,.08-.16,.17-.22,.26-.04,.06-.08,.13-.11,.2-.04,.12-.02,.25,.08,.34,.2,.17,.41,.22,.64,.12,.09-.04,.18-.09,.26-.16,.11-.09,.21-.2,.3-.31,.14-.18,.27-.38,.37-.59,.15-.32,.26-.65,.32-1,.09-.63,.02-1.25-.16-1.85,0-.02-.02-.05-.03-.07" fill="#90dbf3"/>
  <path d="M82.93,103.19s.02,.05,.03,.07c.18,.6,.24,1.21,.15,1.84-.05,.35-.16,.68-.32,1-.1,.21-.22,.4-.36,.58-.09,.11-.19,.22-.3,.31-.08,.06-.16,.12-.25,.16-.23,.09-.44,.05-.64-.13-.11-.09-.12-.21-.08-.34,.02-.07,.06-.14,.11-.2,.07-.09,.14-.18,.22-.27,.1-.11,.21-.2,.31-.3,.23-.21,.41-.45,.56-.72,.16-.28,.27-.58,.37-.88,.1-.34,.17-.7,.19-1.05,0-.02,0-.04,0-.07,0,0,0,0,.01-.01" fill="#fff"/>
  <path d="M98.7,35.89c-.21,.01-.36,.13-.52,.23-1.23,.77-2.47,1.5-3.68,2.31-5.12,3.43-9.88,7.41-14.21,12.02-.68,.72-1.35,1.47-1.98,2.23-.94,1.12-1.71,2.37-2.36,3.7-.7,1.45-1.22,2.95-1.48,4.5-.76,4.55,.3,8.26,3.23,11.04,4.66,4.4,12.48,3.42,17.46-2.47,1.73-2.05,2.88-4.37,3.48-6.94,.21-.89,.27-1.78,.25-2.66-.02-1.03-.14-2.03-.35-3-.29-1.34-.59-2.66-.91-3.98-.33-1.38-.66-2.75-.9-4.16-.24-1.43-.39-2.88-.36-4.38,.04-2.4,.58-4.74,1.64-7.02,.16-.35,.36-.68,.53-1.03,.06-.12,.1-.24,.16-.39" fill="#90dbf3"/>
  <path d="M98.7,35.89c-.21,.01-.36,.13-.52,.23-1.23,.77-2.47,1.5-3.68,2.31-5.12,3.43-9.88,7.41-14.21,12.02-.68,.72-1.35,1.47-1.98,2.23-.94,1.12-1.71,2.37-2.36,3.7-.7,1.45-1.22,2.95-1.48,4.5-.76,4.55,.3,8.26,3.23,11.04,4.66,4.4,12.48,3.42,17.46-2.47,1.73-2.05,2.88-4.37,3.48-6.94,.21-.89,.27-1.78,.25-2.66-.02-1.03-.14-2.03-.35-3-.29-1.34-.59-2.66-.91-3.98-.33-1.37-.66-2.75-.9-4.16-.24-1.43-.39-2.88-.36-4.38,.04-2.4,.58-4.74,1.64-7.02,.16-.35,.36-.68,.53-1.03,.06-.12,.1-.24,.16-.39Z" fill="none" stroke="#231f20" stroke-miterlimit="10" stroke-width=".38"/>
  <path d="M97.1,57.79s-.05,.02-.05,.03c-.02,.07-.04,.14-.06,.2-.27,1.11-.67,2.17-1.18,3.19-.46,.91-.99,1.78-1.64,2.57-.62,.76-1.32,1.43-2.15,1.95-.39,.24-.78,.5-1.15,.77-.29,.22-.58,.46-.84,.71-.17,.16-.32,.36-.43,.56-.21,.37-.22,.76,.06,1.1,.52,.66,1.15,.93,1.93,.75,.32-.07,.61-.19,.89-.35,.41-.22,.78-.5,1.12-.8,.55-.49,1.04-1.04,1.47-1.63,.65-.91,1.19-1.88,1.54-2.95,.63-1.91,.75-3.87,.54-5.86,0-.08-.04-.15-.05-.24" fill="#fff"/>
</svg>