<?xml version="1.0" encoding="UTF-8"?><svg id="Layer_1" xmlns="http://www.w3.org/2000/svg" viewBox="0 0 595.28 841.89">
    <path d="M1.18,654.89c16.66,.04,47.28,4.25,67.52-19.03,7.57-8.71,12.64-18.69,16.51-29.3,9-24.63,11.59-52.63,24.18-75.82,9.06-16.7,20.86-26.98,34.23-33.57,6.47-3.19,13.3-5.52,20.38-7.3,35.22-8.88,76.41-4.23,107.64-24.52,24.7-16.05,39.53-48.67,56.55-73.97,12.76-18.97,24.29-24.7,40.82-34.14,20.01-9.14,25.64-10.45,44.04-13.08,4.05-.58,19.81-2.78,23.9-3.24,36.57-4.41,45.5-3.5,52.41-6.85,6.57-3.18,11.74-9.42,45.26-25.78,14.7-7.18,51.32-11.54,61.14-11.31l1.15,544.91L1.56,840.54" fill="#f37e9b"/>
    <path d="M.51,669.26c16.66-.03,47.26,3.77,67.57-17.94,7.6-8.12,12.7-17.42,16.62-27.29,9.09-22.92,11.79-48.96,24.46-70.55,9.12-15.56,20.96-25.15,34.35-31.33,6.48-2.99,13.32-5.18,20.4-6.87,35.25-8.39,76.41-4.22,107.72-23.19,24.76-15.01,39.71-45.38,56.82-68.96,12.83-17.68,27.41-30.39,43.97-39.22,14.99-8,31.61-12.85,50.01-15.37,4.05-.55,8.13-1.04,12.22-1.49,41.21-4.49,32.77-5,53.23-10.04,14.98-3.78,14.87-8.36,48.45-23.7,14.73-6.73,50.22-9.81,60.04-9.63l-.97,517.11L.18,841.79" fill="#fac7d0"/>
    <path d="M595.76,311.47s-10.69,.05-21.43,.67c-19.49,1.13-29.15,12.99-87.43,39.8-37.3,17.16-86.29,.62-115.13,18.77-73.91,46.5-53.16,80.08-108.49,107.32-55.33,27.24-119.88,24.54-146.39,82.22-26.51,57.68-16.07,89.91-66.86,97.28-32.66,4.74-49.91,4.65-49.91,4.65" fill="none" stroke="#fff" stroke-miterlimit="10" stroke-width=".95"/>
</svg>