<?xml version="1.0" encoding="UTF-8"?>
<svg id="Layer_1" data-name="Layer 1" xmlns="http://www.w3.org/2000/svg" viewBox="0 0 537.55 94.07">
<defs>
 <g id="mask">
    <mask id="mask-01">
      <path class="mask" d="M16.96,48.39S1.04,42.83,2.05,35.52c0,0-.57-9.95,5.96-13.2,6.4-3.19,2.83-2.6,12.34-5.66,7.25-2.34,15.18,7.11,8.93,25.2s-4.24,27.48-11.47,28.77-18.4-2.88-14.45,3.09,4.32,8.46,4.32,8.46l-4.32-8.46s14.22-7.46,23.9-3.34,14.71,7.9,20.32,6.69,7.59-8.13,7.59-8.13" fill="none" stroke="#231f20" stroke-miterlimit="10" stroke-width="4"/>
    </mask>
    <mask id="mask-02">
      <polyline class="mask" points="55.16 18.16 58.94 11.49 56.22 25.82 60.25 21.44" fill="none" stroke="#231f20" stroke-miterlimit="10" stroke-width="4"/>
    </mask>
    <mask id="mask-03">
      <path class="mask" d="M68.78,51.39s-2.48-2.32-5.95,.49-3.67,5.71-1.39,6.65-.43,3.76,4.16-1.36,5.73-5.39,5.73-5.39c0,0-1.27,4.39,.84,5.39s6.08,.55,7.23,0" fill="none" stroke="#231f20" stroke-miterlimit="10" stroke-width="4"/>
    </mask>
    <mask id="mask-04">
      <path class="mask" d="M78.99,56.04c3.78-3.82,6.29-6.21,6.49-6.03,.31,.28-5.05,6.52-4.67,6.87,.49,.45,9.58-9.24,10.66-8.36,.82,.67-3.54,6.94-2.72,7.58,1.04,.81,8.93-7.46,11.44-7.26,2.21,.18,.09,6.58,2.24,7.69,1.36,.7,3.57-.75,5.6-2.52" fill="none" stroke="#231f20" stroke-miterlimit="10" stroke-width="4"/>
    </mask>
    <mask id="mask-05">
      <polyline class="mask" points="106.75 58.77 111.29 51.93 113.25 48.83 117.21 50.88 115.55 55.32 112.59 56.97 109.03 56.9 119.71 55.32" fill="none" stroke="#231f20" stroke-miterlimit="10" stroke-width="4"/>
    </mask>
    <mask id="mask-06">
      <polyline class="mask" points="120.43 56.3 123.55 48.71 125.42 48.15 126.86 50.59 125.51 52.23 123.98 53.45 125.42 56.3 125.51 58.77 132.28 57.65" fill="none" stroke="#231f20" stroke-miterlimit="10" stroke-width="4"/>
    </mask>
    <mask id="mask-07">
      <path class="mask" d="M131.61,58.19l12.62-6.26s1.78-.83,1.68-2.36-3.25-1.81-4.46,0-4.7,7.73-.96,8.12,13.52-2.85,15.64-4.24" fill="none" stroke="#231f20" stroke-miterlimit="10" stroke-width="4"/>
    </mask>
    <mask id="mask-08">
      <path class="mask" d="M167.86,52.65l10.29-10.87,4.18-13.62s1.02-7.11-2.2-7.05-7.38,4.15-9.28,10.08-5.01,27.11-3,34.53,4.05,8.42,4.61,7.47,1.72-7.27-.08-9.72-7.63-4.95-9.23-4.03,12.81-4.86,12.81-4.86" fill="none" stroke="#231f20" stroke-miterlimit="10" stroke-width="4"/>
    </mask>
    <mask id="mask-09">
      <path class="mask" d="M186.86,50.81s-2.48-2.32-5.95,.49-3.67,5.71-1.39,6.65-.43,3.76,4.16-1.36,5.73-5.39,5.73-5.39c0,0-1.27,4.39,.84,5.39s12.11-1.46,13.25-2.01" fill="none" stroke="#231f20" stroke-miterlimit="10" stroke-width="4"/>
    </mask>
    <mask id="mask-10">
      <path class="mask" d="M215.09,53.26s11.12-9.42,13.47-12.23,9.58-12.48,7.1-14.45-9.41-1.53-12.48,3.08-10.47,13.83-10.06,23.61c.28,6.82,2.6,11.21,4.61,10.24s5.93-2.18,2.3-4.73-5.98-2.5-4.77-1.19,10.05,.94,12.47,.16l2.42-.79h0" fill="none" stroke="#231f20" stroke-miterlimit="10" stroke-width="4"/>
    </mask>
    <mask id="mask-11">
      <path class="mask" d="M226.38,59.1l12.62-6.26s1.78-.83,1.68-2.36-3.25-1.81-4.46,0-4.7,7.73-.96,8.12,13.52-2.85,15.64-4.24" fill="none" stroke="#231f20" stroke-miterlimit="10" stroke-width="4"/>
    </mask>
    <mask id="mask-12">
      <path class="mask" d="M251.41,52.71s11.63-9.41,13.23-12.36,7.19-12.93,5.02-15.86-2.93-6.27-9.29-.46-8.97,10.45-8.95,17.35-4.22,12.48,1.63,15.55,5.89,2.25,9.64,.2,5.07-2.24,5.07-2.24" fill="none" stroke="#231f20" stroke-miterlimit="10" stroke-width="4"/>
    </mask>
    <mask id="mask-13">
      <path class="mask" d="M268.41,52.71s11.63-9.41,13.23-12.36c1.59-2.94,7.19-12.93,5.02-15.86s-2.93-6.27-9.29-.46c-6.36,5.8-8.97,10.45-8.95,17.35s-4.22,12.48,1.63,15.55,5.89,2.25,9.64,.2,5.07-2.24,5.07-2.24" fill="none" stroke="#231f20" stroke-miterlimit="10" stroke-width="4"/>
    </mask>
    <mask id="mask-14">
      <path class="mask" d="M278.8,57.64l12.62-6.26s1.78-.83,1.68-2.36-3.25-1.81-4.46,0-4.7,7.73-.96,8.12,13.52-2.85,15.64-4.24" fill="none" stroke="#231f20" stroke-miterlimit="10" stroke-width="4"/>
    </mask>
    <mask id="mask-15">
      <path class="mask" d="M313.82,52.45s11.66-9.27,13.97-15.98,2.48-9.89,0-9.16-2.03-1.62-8.83,6.77c-6.29,7.78-7.96,18.91-6.03,21.46s3.02,5.33,8.07,3.81,7.36-3.81,7.36-3.81" fill="none" stroke="#231f20" stroke-miterlimit="10" stroke-width="4"/>
      <line class="mask" x1="310.17" y1="45.57" x2="330.09" y2="43.9" fill="none" stroke="#231f20" stroke-miterlimit="10" stroke-width="4"/>
    </mask>
    <mask id="mask-16">
      <path class="mask" d="M328.12,56.77l5.21-4.41-2.52,6.99s3.51,2.61,6.29-.39,9.14-7.91,9.14-7.91l-3.25,5.91,4.42,1.33,6.45-3.6" fill="none" stroke="#231f20" stroke-miterlimit="10" stroke-width="4"/>
    </mask>
    <mask id="mask-17">
      <path class="mask" d="M356.67,52.44s11.66-9.27,13.97-15.98,2.48-9.89,0-9.16-2.03-1.62-8.83,6.77c-6.29,7.78-7.96,18.91-6.03,21.46s3.02,5.33,8.07,3.81,8.17-4.7,8.17-4.7" fill="none" stroke="#231f20" stroke-miterlimit="10" stroke-width="4"/>
      <line class="mask" x1="352.36" y1="45.57" x2="372.94" y2="43.89" fill="none" stroke="#231f20" stroke-miterlimit="10" stroke-width="4"/>
    </mask>
    <mask id="mask-18">
      <path class="mask" d="M375.68,52.45s11.66-9.27,13.97-15.98,2.48-9.89,0-9.16-2.03-1.62-8.83,6.77c-6.29,7.78-7.96,18.91-6.03,21.46s3.02,5.33,8.07,3.81,7.36-3.81,7.36-3.81" fill="none" stroke="#231f20" stroke-miterlimit="10" stroke-width="4"/>
      <line class="mask" x1="372.02" y1="45.57" x2="391.95" y2="43.9" fill="none" stroke="#231f20" stroke-miterlimit="10" stroke-width="4"/>
    </mask>
    <mask id="mask-19">
      <path class="mask" d="M386.62,58.56l12.62-6.26s1.78-.83,1.68-2.36-3.25-1.81-4.46,0-4.7,7.73-.96,8.12,13.52-2.85,15.64-4.24" fill="none" stroke="#231f20" stroke-miterlimit="10" stroke-width="4"/>
    </mask>
    <mask id="mask-20">
      <path class="mask" d="M423.17,52.19s11.63-9.41,13.23-12.36c1.59-2.94,7.19-12.93,5.02-15.86s-2.93-6.27-9.29-.46c-6.36,5.8-8.97,10.45-8.95,17.35,.02,6.9-4.22,12.48,1.63,15.55s5.89,2.25,9.64,.2,5.07-2.24,5.07-2.24" fill="none" stroke="#231f20" stroke-miterlimit="10" stroke-width="4"/>
    </mask>
    <mask id="mask-21">
      <path class="mask" d="M432.82,57.38l12.62-6.26s1.78-.83,1.68-2.36-3.25-1.81-4.46,0-4.7,7.73-.96,8.12,13.52-2.85,15.64-4.24" fill="none" stroke="#231f20" stroke-miterlimit="10" stroke-width="4"/>
    </mask>
    <mask id="mask-22">
      <path class="mask" d="M476.5,51.19l-7.15,.58-4.02,4.6s-1.31,.78,2,2.67,4.54,1.84,9.18,0,7.22-2.16,7.22-2.16" fill="none" stroke="#231f20" stroke-miterlimit="10" stroke-width="4"/>
    </mask>
    <mask id="mask-23">
      <polyline class="mask" points="482.89 55.64 486.48 54.24 489.82 51.93 491.05 49 495.55 50.01 495.08 52.85 491.78 55.81 488.62 57.38 499.82 55.32" fill="none" stroke="#231f20" stroke-miterlimit="10" stroke-width="4"/>
    </mask>
    <mask id="mask-24">
      <polyline class="mask" points="499.82 55.32 503.65 50.01 509.8 48.27 501.39 52.85 505.51 55.81 514.7 60.37 513.52 65.06 509.66 66.28 503.15 65.77 503.65 61.54 507.96 59.67" fill="none" stroke="#231f20" stroke-miterlimit="10" stroke-width="4"/>
    </mask>
    <mask id="mask-25">
      <path class="mask" d="M511.93,57.79l12.62-6.26s1.78-.83,1.68-2.36-3.25-1.81-4.46,0-4.7,7.73-.96,8.12,13.52-2.85,15.64-4.24" fill="none" stroke="#231f20" stroke-miterlimit="10" stroke-width="4"/>
    </mask>
  </g>
</defs>

  <g id="letters">
    <path mask="url(#mask-01" id="let-01" d="M20.44,70.55c-13.37,0-15,5.05-15,5.98,0,.75,.2,1.33,.61,1.77,.41,.41,.75,.64,1.02,.64,.09,0,.17,.03,.23,.09,.06,.06,.12,.12,.15,.17,.03,.06,.06,.12,.06,.17,0,.03-.03,.09-.06,.15-.03,.06-.09,.12-.15,.17-.06,.06-.17,.09-.32,.09-.17,0-.49-.12-.93-.32-.46-.23-.87-.58-1.28-1.04-.41-.49-.58-1.13-.58-1.91,0-7.31,15.34-8.18,15.55-8.15-.03-.03,10.56-27.5,10.56-41.57,0-3.13-1.1-8.93-8.53-8.93-2.7,0-5.42,.75-8.18,2.2-2.78,1.42-5.08,3.39-6.93,5.92-1.86,2.52-2.67,5.42-2.67,8.73,0,7.34,8.01,11.52,12.07,12.44,.41,.09,.67,.26,.84,.52,.17,.26,.17,.49,.06,.73-.15,.23-.46,.32-.96,.29-4.53-.64-13.95-4.84-13.95-13.92,0-3.83,.78-7.16,2.76-9.95,1.94-2.81,4.41-4.99,7.43-6.56,2.99-1.57,6-2.44,9.08-2.44,10.59,0,11.08,8.5,11.08,10.33,0,16.5-10.24,42.06-10.24,42.06,9.08,0,17.2,7.28,22.33,7.28,2.2,0,4.03-.49,5.48-1.36,1.42-.9,2.67-2.18,3.77-3.83,.23-.46,.49-.67,.78-.67,.41,0,.64,.17,.64,.58,0,.35-.12,.7-.29,1.1-.99,1.74-2.41,3.22-4.29,4.41-1.91,1.16-3.97,1.8-6.15,1.8-7.8,0-11.75-6.96-23.99-6.96Z" fill="#ed1c24"/>
    <path mask="url(#mask-02)" id="let-02" d="M60.02,11.49c.12,0,.23,.12,.38,.38,0,.29-.61,2.67-1.77,7.16-.09,.23-.35,1.36-.75,3.42l1.89-1.51h.26c.15,.03,.23,.09,.23,.23v.26c-2,2.23-3.16,3.36-3.39,3.39-.38-.15-.61-.32-.64-.49,0-1.25,.67-4.38,2.03-9.34-.35,.38-.75,1.1-1.28,2.15h-.49v-.23c.55-1.94,1.62-3.74,3.16-5.42h.38Z" fill="#ed1c24"/>
    <path mask="url(#mask-03)" id="let-03" d="M58.94,56.57c0-2.61,3.77-5.98,9.05-6.21h.17c.84,0,.99,.23,.99,.7,0,.35-.73,.32-2.15,.52-3.34,.46-5.95,2.52-5.95,4.55,0,1.02,1.51,1.02,1.51,1.02,2.99-.2,8.03-5.83,8.59-5.83,.75,0,.93,.44,.93,.81,.06,2.41,1.77,4.76,4,4.76,1.48,0,3.57-.96,6.7-3.22,.26,0,.52,.29,.52,.52,0,.09-.03,.17-.09,.23-.29,.38-3.92,3.51-7.48,3.51-2.09,0-4.15-1.1-5.48-4.47-1.16,.06-4.7,5.31-9.4,5.31-1.54,0-1.89-1.39-1.91-2.2Z" fill="#ed1c24"/>
    <path mask="url(#mask-04)" id="let-04" d="M81.42,57.47c-.49,0-.61-.26-.61-.58,0-.2,.06-.44,.12-.61,2.06-4.41,3.54-6.27,4.55-6.27h.15c.44,0,.52,.41,.52,.7l-.03,.29c-.67,.49-1.22,1.48-2.23,3.65,0,0,6.21-6.15,6.99-6.24h.09c.75,0,.9,.46,.9,1.1-.87,1.25-1.25,2.78-1.25,3.86,0,.84,.23,1.42,.64,1.42,2.18-.12,6.99-5.95,8.93-5.95s1.68,6.93,3.13,6.93l.06,.03c2.23,0,3.71-1.19,5.02-2.49,.06-.06,.12-.09,.17-.09,.26,0,.46,.46,.46,.64v.06c0,.35-.23,.78-.44,.99-1.68,1.83-3.71,2.44-5.71,2.44-2.7,0-2.15-6.29-3.13-6.32-2.41,0-6.76,5.42-8.67,5.42-1.68,0-2.15-1.07-2.15-2.26,0-1.45,.67-3.02,.67-3.02-3.13,1.39-4.87,6.18-8.09,6.27l-.09,.03Z" fill="#ed1c24"/>
    <path mask="url(#mask-05)" id="let-05" d="M107.63,55.9c.03-1.6,.87-3.31,2.09-4.06,0,0,.44-3.13,4.96-3.13,1.74,0,2.52,1.13,2.52,2.18,0,1.22-1.39,3.57-2.96,4.87,2.7,0,4.7-.35,8.09-2.35h.17c.17,0,.35,.09,.35,.52,0,.17,0,.35-.17,.52-1.83,1.31-5.13,2.78-8.09,2.78-.7,0-1.39-.09-2-.26-1.22,.87-2.35,1.22-3.13,1.22-1.68,0-1.83-1.86-1.83-2.29Zm3.39,.46c-.7,0-1.31-1.13-1.39-1.57,0,0-.49,.67-.49,1.31,.09,.46,.12,.73,.7,.73,.35,0,.78-.15,1.19-.46Zm4.52-5.66c0-.44-.35-.7-.87-.7-2.35,0-3.39,1.39-3.39,1.91,.52,.09,1.31,.35,1.31,.7,0,.9-.49,1.07-1.1,1.07l-.55-.03c0,.87,.61,1.57,1.74,1.65,1.91-1.65,2.87-3.31,2.87-4.61Z" fill="#ed1c24"/>
    <path mask="url(#mask-06)" id="let-06" d="M123.67,57.5c0-.67,.32-1.45,.84-2.18l.15-.41c0-.41-.58-.52-1.25-.52l-1.48,.15c-.23,0-.32-.26-.32-.75l.17-.75c0-1.13,1.6-4.87,3.36-4.87l.49,.12c.58,.12,1.02,.38,1.02,.9v.06c0,1.83-1.54,2.78-2.32,3.83,1.28,.12,2.29,.81,2.29,1.74,0,.29-.09,.55-.29,.87-.49,.7-.73,1.19-.73,1.51,0,.78,1.13,.84,2.55,.84,3.1,0,11.05-4.23,11.05-4.58l.12-.09c.17,0,.41,.26,.41,.49v.03c0,.67-.52,.84-.52,.84-2.7,1.48-8.35,4.79-12.53,4.79-2.18,0-3.02-.87-3.02-2Z" fill="#ed1c24"/>
    <path mask="url(#mask-07)" id="let-07" d="M138.72,55.44c0-2.78,2.96-6.79,5.57-6.79,1.1,0,1.89,.29,2.03,1.45v.17c0,1.48-2.2,2.44-5.69,3.94-.26,.44-.35,1.22-.35,1.48,0,.96,.99,1.48,2.7,1.48,5.74,0,9.83-2.35,12.53-4,.35,0,.61,.35,.61,.61,0,.17,0,.44-.09,.52-1.83,1.13-7.4,4.18-13.31,4.18-3.13,0-4-.96-4-3.05Zm6.44-5.1v-.09c0-.26-.06-.67-.81-.67-1.16,0-2.9,2.55-3.25,3.28,2.09-.84,4.06-1.86,4.06-2.52Z" fill="#ed1c24"/>
    <path mask="url(#mask-08)" id="let-08" d="M166.71,60.74v-.26c-1.48-.61-3.25-.2-3.25-1.02,0-1.39,1.04-1.6,3.13-2.29,0,0-.09-1.86-.09-4.61,0-8.01,6.15-31.65,11.83-31.65,0,0,.2-.03,.55-.03,1.42,0,4.96,.64,4.96,7.22,0,8.27-9.37,20.02-15.43,25.32l-.17,3.13c2.38-.38,6.53-1.28,10.76-3.25l.12-.03c.29,0,.52,.32,.52,.49v.52c-1.31,1.1-10.44,3.77-11.34,3.77l-.06-.03v1.42c2.18,.99,5.48,2.49,5.48,9.86v.35c-.06,3.48-1.31,4.03-2.06,4.03-2.7-.03-4.96-4.79-4.96-12.97Zm6.06,8.3c0-.49,0-.9-.06-1.19-1.04-6.73-4.55-7.02-4.55-7.02,.58,7.31,2.23,12.04,3.54,12.04h.03c.78-.03,1.04-2.23,1.04-3.83Zm9.86-40.84c-.29-4.61-1.77-4.61-3.07-4.79l-.32-.03c-5.37,0-10.88,19.9-10.88,27.96v.44c4.55-3.94,14.27-14.53,14.27-23.58Z" fill="#ed1c24"/>
    <path mask="url(#mask-09)" id="let-09" d="M177.35,56.57c0-2.61,3.77-5.98,9.05-6.21h.17c.84,0,.99,.23,.99,.7,0,.35-.73,.32-2.15,.52-3.34,.46-5.95,2.52-5.95,4.55,0,1.02,1.51,1.02,1.51,1.02,2.99-.2,8.03-5.83,8.59-5.83,.75,0,.93,.44,.93,.81,.06,2.41,1.77,4.76,4,4.76,1.48,0,3.57-.96,6.7-3.22,.26,0,.52,.29,.52,.52,0,.09-.03,.17-.09,.23-.29,.38-3.92,3.51-7.48,3.51-2.09,0-4.15-1.1-5.48-4.47-1.16,.06-4.7,5.31-9.4,5.31-1.54,0-1.89-1.39-1.91-2.2Z" fill="#ed1c24"/>
    <path mask="url(#mask-10)" id="let-10" d="M211.94,55.32c0-11.57,10.36-30.72,21.23-30.72,1.51,0,2.64,1.1,2.64,3.22,0,4.44-4.96,13.4-21.78,26.25-.12,.46-.2,.75-.2,2.23,0,2.26,.81,5.45,2.9,5.45,1.65,0,2-.96,2-1.74,0-.52-.17-.96-.17-.96-2.18,0-3.31-.26-3.31-1.48,0-.96,.7-1.48,2.18-1.48,1.91,0,2.61,.7,3.31,1.22,5.22-.17,10.53-1.13,13.84-4.35h.2c.38,0,.84,.06,.84,1.04,0,.87-8.18,4.79-14.47,4.79h-.23l.06,.46c0,1.16-.49,4.23-3.89,4.23-4.35,0-5.13-5.74-5.13-8.18Zm22.34-27.3c0-.93-.38-1.45-1.13-1.45h-.09c-13,0-19.03,22.48-19.03,25.85,14.27-10.88,20.25-20.8,20.25-24.4Z" fill="#ed1c24"/>
    <path mask="url(#mask-11)" id="let-11" d="M233.78,55.44c0-2.78,2.96-6.79,5.57-6.79,1.1,0,1.89,.29,2.03,1.45v.17c0,1.48-2.2,2.44-5.69,3.94-.26,.44-.35,1.22-.35,1.48,0,.96,.99,1.48,2.7,1.48,5.74,0,9.83-2.35,12.53-4,.35,0,.61,.35,.61,.61,0,.17,0,.44-.09,.52-1.83,1.13-7.4,4.18-13.31,4.18-3.13,0-4-.96-4-3.05Zm6.44-5.1v-.09c0-.26-.06-.67-.81-.67-1.16,0-2.9,2.55-3.25,3.28,2.09-.84,4.06-1.86,4.06-2.52Z" fill="#ed1c24"/>
    <path mask="url(#mask-12)" id="let-12" d="M257.13,59.67c-5.05,0-7.08-4.47-7.08-10.44,0-11.86,7.98-29.62,15.78-29.67h.06c2.2,0,3.97,1.74,3.97,5.51,0,.73-.06,1.54-.2,2.44-2.61,17.84-17.4,26.48-17.4,26.48,.17,.93,1.83,4.15,5.28,4.15,2.81,0,5.4-1.48,10.27-4.73,.44,0,.61,.17,.61,.49v.12c-.06,.46-7.08,5.63-11.23,5.66h-.06Zm11.23-32.26c.15-.78,.2-1.51,.2-2.12,0-2.93-1.33-4.15-2.96-4.15-4.12,0-13.98,13.14-13.98,27.73,0,1.28,.06,2.58,.23,3.89,0,0,13.89-7.6,16.5-25.35Z" fill="#ed1c24"/>
    <path mask="url(#mask-13)" id="let-13" d="M274.41,59.67c-5.05,0-7.08-4.47-7.08-10.44,0-11.86,7.98-29.62,15.78-29.67h.06c2.21,0,3.97,1.74,3.97,5.51,0,.73-.06,1.54-.2,2.44-2.61,17.84-17.4,26.48-17.4,26.48,.17,.93,1.83,4.15,5.28,4.15,2.81,0,5.4-1.48,10.27-4.73,.43,0,.61,.17,.61,.49v.12c-.06,.46-7.08,5.63-11.23,5.66h-.06Zm11.23-32.26c.14-.78,.2-1.51,.2-2.12,0-2.93-1.33-4.15-2.96-4.15-4.12,0-13.98,13.14-13.98,27.73,0,1.28,.06,2.58,.23,3.89,0,0,13.89-7.6,16.5-25.35Z" fill="#ed1c24"/>
    <path mask="url(#mask-14)" id="let-14" d="M284.62,55.44c0-2.78,2.96-6.79,5.57-6.79,1.1,0,1.88,.29,2.03,1.45v.17c0,1.48-2.2,2.44-5.69,3.94-.26,.44-.35,1.22-.35,1.48,0,.96,.99,1.48,2.7,1.48,5.74,0,9.83-2.35,12.53-4,.35,0,.61,.35,.61,.61,0,.17,0,.44-.09,.52-1.83,1.13-7.4,4.18-13.31,4.18-3.13,0-4-.96-4-3.05Zm6.44-5.1v-.09c0-.26-.06-.67-.81-.67-1.16,0-2.9,2.55-3.25,3.28,2.09-.84,4.06-1.86,4.06-2.52Z" fill="#ed1c24"/>
    <path mask="url(#mask-15)" id="let-15" d="M316.87,59.06c-2.96-.9-4.44-3.1-4.44-6.58,0-2.06,.35-4.26,1.04-6.64l-1.83,.44c-.35,.2-.64,.32-.87,.32-.41,0-.61-.35-.61-1.02s1.28-1.16,3.83-1.39c.41-1.33,.96-2.7,1.65-4.09,1.97-4.29,4.29-7.83,6.96-10.62,1.94-2.03,3.71-3.05,5.31-3.05,.55,0,1.07,.12,1.57,.35,.9,.64,1.33,1.6,1.33,2.81,0,.84-.38,2.2-1.13,4.15-1.19,2.96-3.22,6.21-6.12,9.75,3.36,0,5.05-.12,5.05-.35,.7,.26,1.04,.73,1.04,1.39,0,.41-1.16,.61-3.48,.61h-3.83c-1.33,1.74-2.64,3.31-3.92,4.7-2.2,2.38-3.65,3.77-4.35,4.18,0,.64,.29,1.31,.84,2.03,.87,1.16,2.32,1.74,4.35,1.74,.17,0,.64-.03,1.42-.06,.75-.03,2.18-.41,4.24-1.07,2.06-.67,4.5-1.74,7.34-3.25,.52,0,.78,.23,.78,.7-.06,.23-.17,.41-.35,.52-6.03,3.16-10.62,4.73-13.75,4.73-.78,0-1.48-.09-2.09-.29Zm4.18-13.89c-1.65,.06-3.66,.23-6.03,.49-.58,2.12-.99,4.38-1.19,6.79,2.18-1.62,4.58-4.03,7.22-7.28Zm1.3-1.68c4.35-5.63,6.5-9.75,6.5-12.27,0-1.07-.41-1.83-1.28-2.26l-.23-.03c-.87,0-2.32,.93-4.29,2.81-1.97,1.86-3.89,4.58-5.74,8.18-.7,1.28-1.31,2.64-1.83,4.09l6.88-.52Z" fill="#ed1c24"/>
    <path mask="url(#mask-16)" id="let-16" d="M330.09,57.47c0-1.57,.96-3.54,2.58-5.11h.67c.14,0,.32,.17,.49,.49v.49c-1.45,2.12-2.03,3.48-2.03,4.32,0,.75,.49,1.07,1.28,1.07,3.04,0,10.33-4.7,10.7-5.95,1.13-1.1,1.6-1.74,2.47-1.74,.43,0,1.3,.35,1.3,.73,0,.09-.03,.17-.14,.26-2,1.51-2.81,2.61-2.81,3.31,0,.87,.41,1.54,1.65,1.65h.2c1.88,0,5.16-1.71,8.44-3.65,.23,.12,.32,.32,.32,.55,0,.38-.2,.81-.2,.81-1.86,1.42-7.46,3.94-9.75,4.03h-.09c-1.16,0-2.29-.99-2.29-2.58l.06-.49c-1.86,1.42-3.97,2.58-6.29,3.48-1.54,.61-2.78,.87-3.74,.87-1.97,0-2.81-1.07-2.81-2.55Z" fill="#ed1c24"/>
    <path mask="url(#mask-17)" id="let-17" d="M359.06,59.06c-2.96-.9-4.44-3.1-4.44-6.58,0-2.06,.35-4.26,1.04-6.64l-1.83,.44c-.35,.2-.64,.32-.87,.32-.41,0-.61-.35-.61-1.02s1.28-1.16,3.83-1.39c.41-1.33,.96-2.7,1.65-4.09,1.97-4.29,4.29-7.83,6.96-10.62,1.94-2.03,3.71-3.05,5.31-3.05,.55,0,1.07,.12,1.57,.35,.9,.64,1.33,1.6,1.33,2.81,0,.84-.38,2.2-1.13,4.15-1.19,2.96-3.22,6.21-6.12,9.75,3.36,0,5.05-.12,5.05-.35,.7,.26,1.04,.73,1.04,1.39,0,.41-1.16,.61-3.48,.61h-3.83c-1.33,1.74-2.64,3.31-3.92,4.7-2.2,2.38-3.65,3.77-4.35,4.18,0,.64,.29,1.31,.84,2.03,.87,1.16,2.32,1.74,4.35,1.74,.17,0,.64-.03,1.42-.06,.75-.03,2.18-.41,4.24-1.07,2.06-.67,4.5-1.74,7.34-3.25,.52,0,.78,.23,.78,.7-.06,.23-.17,.41-.35,.52-6.03,3.16-10.62,4.73-13.75,4.73-.78,0-1.48-.09-2.09-.29Zm4.18-13.89c-1.65,.06-3.66,.23-6.03,.49-.58,2.12-.99,4.38-1.19,6.79,2.18-1.62,4.58-4.03,7.22-7.28Zm1.3-1.68c4.35-5.63,6.5-9.75,6.5-12.27,0-1.07-.41-1.83-1.28-2.26l-.23-.03c-.87,0-2.32,.93-4.29,2.81-1.97,1.86-3.89,4.58-5.74,8.18-.7,1.28-1.31,2.64-1.83,4.09l6.88-.52Z" fill="#ed1c24"/>
    <path mask="url(#mask-18)" id="let-18" d="M378.72,59.06c-2.96-.9-4.44-3.1-4.44-6.58,0-2.06,.35-4.26,1.04-6.64l-1.83,.44c-.35,.2-.64,.32-.87,.32-.41,0-.61-.35-.61-1.02s1.28-1.16,3.83-1.39c.41-1.33,.96-2.7,1.65-4.09,1.97-4.29,4.29-7.83,6.96-10.62,1.94-2.03,3.71-3.05,5.31-3.05,.55,0,1.07,.12,1.57,.35,.9,.64,1.33,1.6,1.33,2.81,0,.84-.38,2.2-1.13,4.15-1.19,2.96-3.22,6.21-6.12,9.75,3.36,0,5.05-.12,5.05-.35,.7,.26,1.04,.73,1.04,1.39,0,.41-1.16,.61-3.48,.61h-3.83c-1.33,1.74-2.64,3.31-3.92,4.7-2.2,2.38-3.65,3.77-4.35,4.18,0,.64,.29,1.31,.84,2.03,.87,1.16,2.32,1.74,4.35,1.74,.17,0,.64-.03,1.42-.06,.75-.03,2.18-.41,4.24-1.07,2.06-.67,4.5-1.74,7.34-3.25,.52,0,.78,.23,.78,.7-.06,.23-.17,.41-.35,.52-6.03,3.16-10.62,4.73-13.75,4.73-.78,0-1.48-.09-2.09-.29Zm4.18-13.89c-1.65,.06-3.66,.23-6.03,.49-.58,2.12-.99,4.38-1.19,6.79,2.18-1.62,4.58-4.03,7.22-7.28Zm1.3-1.68c4.35-5.63,6.5-9.75,6.5-12.27,0-1.07-.41-1.83-1.28-2.26l-.23-.03c-.87,0-2.32,.93-4.29,2.81-1.97,1.86-3.89,4.58-5.74,8.18-.7,1.28-1.31,2.64-1.83,4.09l6.88-.52Z" fill="#ed1c24"/>
    <path mask="url(#mask-19)" id="let-19" d="M393.74,55.44c0-2.78,2.96-6.79,5.57-6.79,1.1,0,1.88,.29,2.03,1.45v.17c0,1.48-2.2,2.44-5.69,3.94-.26,.44-.35,1.22-.35,1.48,0,.96,.99,1.48,2.7,1.48,5.74,0,9.83-2.35,12.53-4,.35,0,.61,.35,.61,.61,0,.17,0,.44-.09,.52-1.83,1.13-7.4,4.18-13.31,4.18-3.13,0-4-.96-4-3.05Zm6.44-5.1v-.09c0-.26-.06-.67-.81-.67-1.16,0-2.9,2.55-3.25,3.28,2.09-.84,4.06-1.86,4.06-2.52Z" fill="#ed1c24"/>
    <path mask="url(#mask-20)" id="let-20" d="M428.43,59.67c-5.05,0-7.08-4.47-7.08-10.44,0-11.86,7.98-29.62,15.78-29.67h.06c2.2,0,3.97,1.74,3.97,5.51,0,.73-.06,1.54-.2,2.44-2.61,17.84-17.4,26.48-17.4,26.48,.17,.93,1.83,4.15,5.28,4.15,2.81,0,5.4-1.48,10.27-4.73,.44,0,.61,.17,.61,.49v.12c-.06,.46-7.08,5.63-11.23,5.66h-.06Zm11.23-32.26c.15-.78,.2-1.51,.2-2.12,0-2.93-1.33-4.15-2.96-4.15-4.12,0-13.98,13.14-13.98,27.73,0,1.28,.06,2.58,.23,3.89,0,0,13.89-7.6,16.5-25.35Z" fill="#ed1c24"/>
    <path mask="url(#mask-21)" id="let-21" d="M438.64,55.44c0-2.78,2.96-6.79,5.57-6.79,1.1,0,1.88,.29,2.03,1.45v.17c0,1.48-2.2,2.44-5.69,3.94-.26,.44-.35,1.22-.35,1.48,0,.96,.99,1.48,2.7,1.48,5.74,0,9.83-2.35,12.53-4,.35,0,.61,.35,.61,.61,0,.17,0,.44-.09,.52-1.83,1.13-7.4,4.18-13.31,4.18-3.13,0-4-.96-4-3.05Zm6.44-5.1v-.09c0-.26-.06-.67-.81-.67-1.16,0-2.9,2.55-3.25,3.28,2.09-.84,4.06-1.86,4.06-2.52Z" fill="#ed1c24"/>
    <path mask="url(#mask-22)" id="let-22" d="M470.45,60.37c-3.54,0-5.25-1.51-5.25-3.54,0-4.53,7.22-7.43,8.79-7.43,.87,0,1.71,.29,1.83,1.25,0,2-1.42,2.49-2.38,2.49-.52,0-1.74-.55-1.74-.78-2.93,.35-4.7,2.38-4.7,4.03,0,1.74,1.33,2.73,3.42,2.73,8.01,0,13.72-4.09,16.48-5.69,.15-.12,.29-.17,.41-.17,.29,0,.49,.32,.49,.73-.03,.46-10.27,6.29-17.17,6.38h-.17Z" fill="#ed1c24"/>
    <path mask="url(#mask-23)" id="let-23" d="M486.17,55.9c.03-1.6,.87-3.31,2.09-4.06,0,0,.43-3.13,4.96-3.13,1.74,0,2.52,1.13,2.52,2.18,0,1.22-1.39,3.57-2.96,4.87,2.7,0,4.7-.35,8.09-2.35h.17c.17,0,.35,.09,.35,.52,0,.17,0,.35-.17,.52-1.83,1.31-5.13,2.78-8.09,2.78-.7,0-1.39-.09-2-.26-1.22,.87-2.35,1.22-3.13,1.22-1.68,0-1.83-1.86-1.83-2.29Zm3.39,.46c-.7,0-1.3-1.13-1.39-1.57,0,0-.49,.67-.49,1.31,.09,.46,.12,.73,.7,.73,.35,0,.78-.15,1.19-.46Zm4.53-5.66c0-.44-.35-.7-.87-.7-2.35,0-3.39,1.39-3.39,1.91,.52,.09,1.3,.35,1.3,.7,0,.9-.49,1.07-1.1,1.07l-.55-.03c0,.87,.61,1.57,1.74,1.65,1.92-1.65,2.87-3.31,2.87-4.61Z" fill="#ed1c24"/>
    <path mask="url(#mask-24)" id="let-24" d="M502.67,64.2c0-2.06,2.06-4.79,6.53-6.76-2.7-.93-8.56-1.62-8.56-4.41s4.99-5.63,8.21-5.63c.49,0,.96,.41,.96,.87l-.09,.29c-1.04,2-7.25,1.71-7.25,4.79,.03,.73,6.06,2.52,9.17,3.19,.93-.15,4.06-1.13,6.53-3.19,.35,.03,.52,.32,.52,.61,0,.35-.23,.64-.52,.84-1.89,1.42-3.36,2.03-4.96,2.73,1.1,.7,2.26,2,2.26,3.57,0,2.87-2.9,6.15-8.5,6.15-2.79-.03-4.29-1.22-4.29-3.05Zm10.85-2.93c0-1.02-.7-2.09-2.47-3.13-2.7,.87-7.4,4.5-7.4,6.58,0,.93,.87,1.57,3.19,1.57,1.91,0,6.67-2.32,6.67-5.02Z" fill="#ed1c24"/>
    <path mask="url(#mask-25)" id="let-25" d="M517.75,55.44c0-2.78,2.96-6.79,5.57-6.79,1.1,0,1.88,.29,2.03,1.45v.17c0,1.48-2.2,2.44-5.69,3.94-.26,.44-.35,1.22-.35,1.48,0,.96,.99,1.48,2.7,1.48,5.74,0,9.83-2.35,12.53-4,.35,0,.61,.35,.61,.61,0,.17,0,.44-.09,.52-1.83,1.13-7.4,4.18-13.31,4.18-3.13,0-4-.96-4-3.05Zm6.44-5.1v-.09c0-.26-.06-.67-.81-.67-1.16,0-2.9,2.55-3.25,3.28,2.09-.84,4.06-1.86,4.06-2.52Z" fill="#ed1c24"/>
  </g>
 
</svg>