<?xml version="1.0" encoding="UTF-8"?>
<svg id="Layer_1" data-name="Layer 1" xmlns="http://www.w3.org/2000/svg" viewBox="0 0 210.7 133.55">
  <path d="M84.3,0c-.74,.04-1.25,.46-1.78,.78-4.23,2.64-8.51,5.18-12.67,7.97-17.63,11.83-34.03,25.55-48.98,41.41-2.36,2.49-4.64,5.06-6.84,7.7-3.24,3.88-5.9,8.17-8.12,12.75-2.42,5.01-4.21,10.16-5.1,15.51-2.62,15.68,1.02,28.45,11.13,38.02,16.06,15.17,43,11.79,60.15-8.51,5.96-7.05,9.92-15.05,11.98-23.92,.73-3.07,.92-6.12,.85-9.17-.08-3.54-.48-7-1.2-10.35-.98-4.6-2.05-9.18-3.14-13.73-1.13-4.74-2.29-9.46-3.11-14.33-.83-4.93-1.35-9.93-1.25-15.09,.15-8.28,1.99-16.34,5.67-24.17,.57-1.2,1.22-2.36,1.83-3.54,.2-.4,.35-.82,.57-1.33" fill="#95d9f0"/>
  <path d="M78.76,75.45c-.11,.07-.16,.08-.17,.11-.07,.23-.15,.47-.2,.7-.93,3.82-2.31,7.48-4.08,11-1.59,3.14-3.42,6.14-5.65,8.86-2.13,2.61-4.54,4.93-7.4,6.72-1.36,.83-2.69,1.72-3.97,2.65-1.01,.75-1.99,1.57-2.89,2.44-.59,.57-1.1,1.22-1.49,1.92-.73,1.28-.75,2.61,.2,3.8,1.8,2.27,3.97,3.2,6.66,2.6,1.09-.24,2.1-.66,3.08-1.2,1.4-.77,2.68-1.71,3.88-2.77,1.9-1.68,3.58-3.57,5.06-5.63,2.25-3.14,4.09-6.47,5.3-10.16,2.17-6.6,2.6-13.34,1.86-20.2-.03-.27-.12-.52-.17-.82" fill="#fff"/>
  <path d="M153.67,50.01c-.46,.03-.78,.29-1.11,.49-2.64,1.65-5.32,3.24-7.92,4.98-11.03,7.4-21.29,15.98-30.64,25.91-1.47,1.56-2.9,3.17-4.28,4.82-2.03,2.42-3.69,5.11-5.08,7.97-1.52,3.13-2.64,6.36-3.19,9.7-1.64,9.81,.64,17.8,6.96,23.79,10.04,9.49,26.9,7.38,37.63-5.32,3.73-4.41,6.21-9.41,7.49-14.96,.45-1.92,.57-3.83,.53-5.73-.05-2.21-.3-4.38-.75-6.47-.61-2.88-1.28-5.74-1.96-8.59-.71-2.96-1.43-5.92-1.94-8.97-.52-3.08-.84-6.21-.78-9.44,.09-5.18,1.25-10.22,3.54-15.12,.35-.75,.77-1.47,1.15-2.21,.13-.25,.22-.51,.35-.83" fill="#95d9f0"/>
  <path d="M150.21,97.21c-.07,.04-.1,.05-.11,.07-.04,.14-.09,.29-.13,.44-.58,2.39-1.45,4.68-2.55,6.88-.99,1.96-2.14,3.84-3.54,5.54-1.33,1.63-2.84,3.08-4.63,4.2-.85,.52-1.68,1.08-2.48,1.66-.63,.47-1.25,.99-1.81,1.52-.37,.35-.69,.77-.93,1.2-.45,.8-.47,1.63,.13,2.37,1.13,1.42,2.48,2,4.17,1.63,.68-.15,1.31-.41,1.93-.75,.88-.48,1.68-1.07,2.42-1.73,1.19-1.05,2.24-2.23,3.17-3.52,1.41-1.96,2.56-4.05,3.32-6.36,1.36-4.13,1.63-8.34,1.16-12.64-.02-.17-.08-.33-.11-.51" fill="#fff"/>
  <path d="M210.44,74.42c-.31,.02-.52,.19-.73,.32-1.74,1.09-3.51,2.14-5.23,3.29-7.28,4.88-14.05,10.55-20.22,17.1-.97,1.03-1.92,2.09-2.82,3.18-1.34,1.6-2.43,3.37-3.35,5.26-1,2.07-1.74,4.2-2.11,6.4-1.08,6.47,.42,11.75,4.6,15.7,6.63,6.26,17.75,4.87,24.83-3.51,2.46-2.91,4.1-6.21,4.95-9.87,.3-1.27,.38-2.53,.35-3.78-.03-1.46-.2-2.89-.49-4.27-.41-1.9-.84-3.79-1.29-5.67-.47-1.96-.94-3.91-1.28-5.92-.34-2.03-.56-4.1-.52-6.23,.06-3.42,.82-6.75,2.34-9.98,.23-.49,.51-.97,.76-1.46,.08-.17,.14-.34,.23-.55" fill="#95d9f0"/>
  <path d="M208.15,105.57s-.07,.03-.07,.04c-.03,.09-.06,.19-.08,.29-.38,1.58-.96,3.09-1.68,4.54-.66,1.29-1.41,2.53-2.33,3.66-.88,1.08-1.87,2.03-3.06,2.77-.56,.34-1.11,.71-1.64,1.09-.42,.31-.82,.65-1.19,1.01-.24,.23-.46,.51-.62,.79-.3,.53-.31,1.08,.08,1.57,.74,.94,1.64,1.32,2.75,1.07,.45-.1,.87-.27,1.27-.49,.58-.32,1.11-.71,1.6-1.14,.78-.69,1.48-1.47,2.09-2.32,.93-1.29,1.69-2.67,2.19-4.2,.89-2.72,1.07-5.51,.77-8.34-.01-.11-.05-.22-.07-.34" fill="#fff"/>
</svg>