<?xml version="1.0" encoding="UTF-8" standalone="no"?>
<!-- Created with Inkscape (http://www.inkscape.org/) -->

<svg
   width="210mm"
   height="297mm"
   viewBox="0 0 210 297"
   version="1.1"
   id="svg1"
   xmlns="http://www.w3.org/2000/svg"
   xmlns:svg="http://www.w3.org/2000/svg">
  <g
     id="layer1">
    <path
       style="fill:rgb(245,127,155);fill-opacity:1;fill-rule:nonzero;stroke:none;stroke-width:0.374671"
       d="m 209.4491,222.04517 3.42594,56.04388 L 8.2122057,292.47323 0.97755263,83.131301 C 3.1371319,93.634129 3.4068564,97.064565 10.709572,102.79339 c 12.635252,9.9072 27.367905,9.18277 41.562069,10.09968 1.40909,0.0909 2.813959,0.19702 4.210339,0.33191 6.350134,0.6138 12.129277,2.20211 17.410917,5.09531 5.831435,3.19176 11.059386,7.97942 15.779936,14.80701 6.293605,9.10094 11.973817,20.9799 20.729457,26.4738 11.06927,6.94581 25.08819,4.38451 37.31074,6.99431 2.45639,0.5259 4.83927,1.25639 7.11333,2.31729 4.70077,2.19149 8.92949,5.78943 12.34128,11.84258 4.73893,8.40378 6.1438,18.80203 9.67997,27.81505 1.52357,3.88286 3.4443,7.50658 6.19607,10.60589 7.35784,8.28253 18.34515,9.54803 26.40542,2.86895"
       id="path43" />
    <path
       style="fill:rgb(251,199,208);fill-opacity:1;fill-rule:nonzero;stroke:none;stroke-width:0.374696"
       d="M 209.79458,227.27689 208.94117,296.61975 2.3304751,298.0554 1.191701,83.598841 c 2.1584556,10.483132 2.5500589,18.967209 9.853752,24.683899 12.634116,9.88598 27.37015,9.16156 41.564785,10.07393 1.409293,0.0909 2.815747,0.19702 4.212315,0.3319 6.34957,0.61077 12.129486,2.19605 17.410434,5.08167 5.833643,3.1857 11.060865,7.96426 15.782046,14.77671 6.293035,9.08275 11.972597,20.93745 20.727977,26.42074 11.07077,6.93217 25.09013,4.37239 37.31574,6.9746 2.45529,0.52439 4.83851,1.25489 7.11288,2.31275 4.70139,2.18543 8.93066,5.77732 12.3415,11.81834 4.73816,8.38559 6.14179,18.76414 9.67844,27.75898 1.52377,3.87528 3.44335,7.49292 6.19549,10.58467 7.3574,8.26586 18.34619,9.52832 26.40752,2.85986"
       id="path44" />
    <path
       style="fill:none;stroke:#ffffff;stroke-width:0.363147;stroke-linecap:butt;stroke-linejoin:miter;stroke-miterlimit:10;stroke-opacity:1"
       d="m 1.1114597,83.786897 c 3.037597,9.518165 2.4601183,16.852993 9.3997213,22.303163 13.903537,10.91571 17.122652,6.07702 32.742101,7.08673 1.551055,0.10004 3.097812,0.21853 4.634528,0.36631 6.988322,0.67569 13.34734,2.42726 19.160192,5.6133 6.417801,3.51854 12.170439,8.79323 17.36547,16.31664 6.926682,10.02765 13.176757,23.11666 22.812758,29.17173 12.18193,7.65423 27.60786,4.83141 41.05986,7.70657 2.70215,0.57871 5.32546,1.38524 7.82836,2.55501 5.1721,2.4134 9.82667,6.37828 13.58102,13.04746 5.21364,9.25959 6.76039,20.71864 10.65235,30.64929 1.67721,4.27886 3.79019,8.27143 6.8192,11.68684 6.99549,7.88666 17.53747,9.95989 25.99657,5.63024"
       id="path45" />
   </g>
</svg>
