<?xml version="1.0" encoding="UTF-8"?>
<!DOCTYPE svg PUBLIC "-//W3C//DTD SVG 1.1//EN" "http://www.w3.org/Graphics/SVG/1.1/DTD/svg11.dtd">
<svg version="1.2" width="103.14mm" height="58.46mm" viewBox="-1 10351 10314 5846" preserveAspectRatio="xMidYMid" fill-rule="evenodd" stroke-width="28.222" stroke-linejoin="round" xmlns="http://www.w3.org/2000/svg" xmlns:ooo="http://xml.openoffice.org/svg/export" xmlns:xlink="http://www.w3.org/1999/xlink" xmlns:presentation="http://sun.com/xmlns/staroffice/presentation" xmlns:smil="http://www.w3.org/2001/SMIL20/" xmlns:anim="urn:oasis:names:tc:opendocument:xmlns:animation:1.0" xmlns:svg="urn:oasis:names:tc:opendocument:xmlns:svg-compatible:1.0" xml:space="preserve">
   <g id="id3">
    <path fill="rgb(245,127,155)" stroke="none" d="M 0,16191 L 0,10351 C 485,10418 981,10423 1469,10452 1572,10458 1675,10465 1777,10474 2241,10516 2664,10625 3050,10822 3476,11040 3859,11366 4204,11832 4664,12452 5079,13262 5719,13637 6528,14111 7553,13936 8447,14114 8626,14150 8801,14200 8967,14272 9311,14421 9620,14667 9869,15079 10074,15418 10194,15805 10311,16191 L 0,16191 Z"/>
   </g>
   <g id="id4">
    <path fill="rgb(251,199,208)" stroke="none" d="M 0,16191 L 0,10721 C 493,10791 997,10795 1493,10824 1596,10831 1699,10838 1801,10847 2265,10889 2688,10997 3074,11194 3501,11411 3883,11737 4228,12201 4688,12820 5103,13629 5743,14003 6552,14475 7577,14301 8471,14478 8650,14514 8825,14564 8991,14636 9335,14785 9644,15030 9893,15442 10034,15674 10135,15929 10222,16191 L 0,16191 Z"/>
   </g>
   <g id="id5">
    <path fill="none" stroke="rgb(255,255,255)" stroke-width="25" stroke-linejoin="miter" d="M 0,10403 C 256,10416 512,10425 766,10440 878,10447 989,10455 1100,10465 1604,10510 2062,10628 2481,10842 2944,11078 3359,11432 3733,11937 4233,12611 4683,13490 5377,13896 6255,14410 7367,14221 8337,14414 8532,14453 8721,14507 8902,14585 9274,14747 9610,15013 9881,15461 10019,15689 10121,15936 10209,16191"/>
   </g>

</svg>